<mxfile host="app.diagrams.net" modified="2024-05-29T12:41:14.706Z" agent="Mozilla/5.0 (Macintosh; Intel Mac OS X 10_15_7) AppleWebKit/605.1.15 (KHTML, like Gecko) Version/17.5 Safari/605.1.15" etag="LYxnguiXHFNToB-u2f-K" version="24.4.7" type="device">
  <diagram name="Page-1" id="arcJ63bZTV7tpKJghAG-">
    <mxGraphModel dx="1296" dy="833" grid="1" gridSize="10" guides="1" tooltips="1" connect="1" arrows="1" fold="1" page="1" pageScale="1" pageWidth="1600" pageHeight="900" math="0" shadow="0">
      <root>
        <mxCell id="0" />
        <mxCell id="1" parent="0" />
        <mxCell id="HDdBaKYEOaWZxf6mFVSR-2" value="" style="edgeStyle=elbowEdgeStyle;elbow=horizontal;endArrow=none;html=1;curved=0;rounded=0;strokeColor=#808080;startArrow=none;startFill=0;endFill=0;exitX=1;exitY=0.5;exitDx=0;exitDy=0;entryX=1;entryY=0.5;entryDx=0;entryDy=0;" edge="1" parent="1" source="HDdBaKYEOaWZxf6mFVSR-57" target="HDdBaKYEOaWZxf6mFVSR-13">
          <mxGeometry width="50" height="50" relative="1" as="geometry">
            <mxPoint x="402" y="650" as="sourcePoint" />
            <mxPoint x="472" y="820" as="targetPoint" />
            <Array as="points">
              <mxPoint x="930" y="530" />
            </Array>
          </mxGeometry>
        </mxCell>
        <mxCell id="HDdBaKYEOaWZxf6mFVSR-3" value="fact_orders" style="shape=table;startSize=30;container=1;collapsible=1;childLayout=tableLayout;fixedRows=1;rowLines=0;fontStyle=1;align=center;resizeLast=1;html=1;fillColor=#0050ef;strokeColor=#001DBC;fontColor=#ffffff;rounded=0;swimlaneLine=1;" vertex="1" parent="1">
          <mxGeometry x="662" y="350" width="220" height="150" as="geometry" />
        </mxCell>
        <mxCell id="HDdBaKYEOaWZxf6mFVSR-4" value="" style="shape=tableRow;horizontal=0;startSize=0;swimlaneHead=0;swimlaneBody=0;fillColor=none;collapsible=0;dropTarget=0;points=[[0,0.5],[1,0.5]];portConstraint=eastwest;top=0;left=0;right=0;bottom=1;" vertex="1" parent="HDdBaKYEOaWZxf6mFVSR-3">
          <mxGeometry y="30" width="220" height="30" as="geometry" />
        </mxCell>
        <mxCell id="HDdBaKYEOaWZxf6mFVSR-5" value="PK" style="shape=partialRectangle;connectable=0;top=0;left=0;bottom=0;right=0;fontStyle=1;overflow=hidden;whiteSpace=wrap;html=1;fontColor=#666666;" vertex="1" parent="HDdBaKYEOaWZxf6mFVSR-4">
          <mxGeometry width="30" height="30" as="geometry">
            <mxRectangle width="30" height="30" as="alternateBounds" />
          </mxGeometry>
        </mxCell>
        <mxCell id="HDdBaKYEOaWZxf6mFVSR-6" value="order_no" style="shape=partialRectangle;connectable=0;top=0;left=0;bottom=0;right=0;align=left;spacingLeft=6;fontStyle=1;overflow=hidden;whiteSpace=wrap;html=1;fontColor=#666666;" vertex="1" parent="HDdBaKYEOaWZxf6mFVSR-4">
          <mxGeometry x="30" width="110" height="30" as="geometry">
            <mxRectangle width="110" height="30" as="alternateBounds" />
          </mxGeometry>
        </mxCell>
        <mxCell id="HDdBaKYEOaWZxf6mFVSR-49" value="varchar(7)" style="shape=partialRectangle;connectable=0;top=0;left=0;bottom=0;right=0;align=center;spacingLeft=0;fontStyle=2;overflow=hidden;whiteSpace=wrap;html=1;fontColor=#666666;strokeColor=#FFFCFD;" vertex="1" parent="HDdBaKYEOaWZxf6mFVSR-4">
          <mxGeometry x="140" width="80" height="30" as="geometry">
            <mxRectangle width="80" height="30" as="alternateBounds" />
          </mxGeometry>
        </mxCell>
        <mxCell id="HDdBaKYEOaWZxf6mFVSR-7" value="" style="shape=tableRow;horizontal=0;startSize=0;swimlaneHead=0;swimlaneBody=0;fillColor=none;collapsible=0;dropTarget=0;points=[[0,0.5],[1,0.5]];portConstraint=eastwest;top=0;left=0;right=0;bottom=0;" vertex="1" parent="HDdBaKYEOaWZxf6mFVSR-3">
          <mxGeometry y="60" width="220" height="30" as="geometry" />
        </mxCell>
        <mxCell id="HDdBaKYEOaWZxf6mFVSR-8" value="" style="shape=partialRectangle;connectable=0;top=0;left=0;bottom=0;right=0;editable=1;overflow=hidden;whiteSpace=wrap;html=1;fontColor=#666666;" vertex="1" parent="HDdBaKYEOaWZxf6mFVSR-7">
          <mxGeometry width="30" height="30" as="geometry">
            <mxRectangle width="30" height="30" as="alternateBounds" />
          </mxGeometry>
        </mxCell>
        <mxCell id="HDdBaKYEOaWZxf6mFVSR-9" value="timestamp" style="shape=partialRectangle;connectable=0;top=0;left=0;bottom=0;right=0;align=left;spacingLeft=6;overflow=hidden;whiteSpace=wrap;html=1;fontColor=#666666;" vertex="1" parent="HDdBaKYEOaWZxf6mFVSR-7">
          <mxGeometry x="30" width="110" height="30" as="geometry">
            <mxRectangle width="110" height="30" as="alternateBounds" />
          </mxGeometry>
        </mxCell>
        <mxCell id="HDdBaKYEOaWZxf6mFVSR-50" value="timestamp" style="shape=partialRectangle;connectable=0;top=0;left=0;bottom=0;right=0;align=center;spacingLeft=0;overflow=hidden;whiteSpace=wrap;html=1;fontColor=#666666;strokeColor=#FFFCFD;fontStyle=2" vertex="1" parent="HDdBaKYEOaWZxf6mFVSR-7">
          <mxGeometry x="140" width="80" height="30" as="geometry">
            <mxRectangle width="80" height="30" as="alternateBounds" />
          </mxGeometry>
        </mxCell>
        <mxCell id="HDdBaKYEOaWZxf6mFVSR-10" value="" style="shape=tableRow;horizontal=0;startSize=0;swimlaneHead=0;swimlaneBody=0;fillColor=none;collapsible=0;dropTarget=0;points=[[0,0.5],[1,0.5]];portConstraint=eastwest;top=0;left=0;right=0;bottom=0;" vertex="1" parent="HDdBaKYEOaWZxf6mFVSR-3">
          <mxGeometry y="90" width="220" height="30" as="geometry" />
        </mxCell>
        <mxCell id="HDdBaKYEOaWZxf6mFVSR-11" value="FK" style="shape=partialRectangle;connectable=0;top=0;left=0;bottom=0;right=0;editable=1;overflow=hidden;whiteSpace=wrap;html=1;fontColor=#666666;" vertex="1" parent="HDdBaKYEOaWZxf6mFVSR-10">
          <mxGeometry width="30" height="30" as="geometry">
            <mxRectangle width="30" height="30" as="alternateBounds" />
          </mxGeometry>
        </mxCell>
        <mxCell id="HDdBaKYEOaWZxf6mFVSR-12" value="restaurant_id" style="shape=partialRectangle;connectable=0;top=0;left=0;bottom=0;right=0;align=left;spacingLeft=6;overflow=hidden;whiteSpace=wrap;html=1;fontColor=#666666;" vertex="1" parent="HDdBaKYEOaWZxf6mFVSR-10">
          <mxGeometry x="30" width="110" height="30" as="geometry">
            <mxRectangle width="110" height="30" as="alternateBounds" />
          </mxGeometry>
        </mxCell>
        <mxCell id="HDdBaKYEOaWZxf6mFVSR-51" value="varchar(6)" style="shape=partialRectangle;connectable=0;top=0;left=0;bottom=0;right=0;align=center;spacingLeft=0;overflow=hidden;whiteSpace=wrap;html=1;fontColor=#666666;labelBorderColor=none;strokeColor=#FFFCFD;fontStyle=2" vertex="1" parent="HDdBaKYEOaWZxf6mFVSR-10">
          <mxGeometry x="140" width="80" height="30" as="geometry">
            <mxRectangle width="80" height="30" as="alternateBounds" />
          </mxGeometry>
        </mxCell>
        <mxCell id="HDdBaKYEOaWZxf6mFVSR-13" value="" style="shape=tableRow;horizontal=0;startSize=0;swimlaneHead=0;swimlaneBody=0;fillColor=none;collapsible=0;dropTarget=0;points=[[0,0.5],[1,0.5]];portConstraint=eastwest;top=0;left=0;right=0;bottom=0;" vertex="1" parent="HDdBaKYEOaWZxf6mFVSR-3">
          <mxGeometry y="120" width="220" height="30" as="geometry" />
        </mxCell>
        <mxCell id="HDdBaKYEOaWZxf6mFVSR-14" value="FK" style="shape=partialRectangle;connectable=0;top=0;left=0;bottom=0;right=0;editable=1;overflow=hidden;whiteSpace=wrap;html=1;fontColor=#666666;" vertex="1" parent="HDdBaKYEOaWZxf6mFVSR-13">
          <mxGeometry width="30" height="30" as="geometry">
            <mxRectangle width="30" height="30" as="alternateBounds" />
          </mxGeometry>
        </mxCell>
        <mxCell id="HDdBaKYEOaWZxf6mFVSR-15" value="takeaway_id" style="shape=partialRectangle;connectable=0;top=0;left=0;bottom=0;right=0;align=left;spacingLeft=6;overflow=hidden;whiteSpace=wrap;html=1;fontColor=#666666;" vertex="1" parent="HDdBaKYEOaWZxf6mFVSR-13">
          <mxGeometry x="30" width="110" height="30" as="geometry">
            <mxRectangle width="110" height="30" as="alternateBounds" />
          </mxGeometry>
        </mxCell>
        <mxCell id="HDdBaKYEOaWZxf6mFVSR-52" value="int" style="shape=partialRectangle;connectable=0;top=0;left=0;bottom=0;right=0;align=center;spacingLeft=0;overflow=hidden;whiteSpace=wrap;html=1;fontColor=#666666;strokeColor=#FFFCFD;fontStyle=2" vertex="1" parent="HDdBaKYEOaWZxf6mFVSR-13">
          <mxGeometry x="140" width="80" height="30" as="geometry">
            <mxRectangle width="80" height="30" as="alternateBounds" />
          </mxGeometry>
        </mxCell>
        <mxCell id="HDdBaKYEOaWZxf6mFVSR-56" value="dim_takeaway" style="shape=table;startSize=30;container=1;collapsible=1;childLayout=tableLayout;fixedRows=1;rowLines=0;fontStyle=1;align=center;resizeLast=1;html=1;fillColor=#1ba1e2;strokeColor=#006EAF;fontColor=#ffffff;" vertex="1" parent="1">
          <mxGeometry x="662" y="550" width="220" height="90" as="geometry" />
        </mxCell>
        <mxCell id="HDdBaKYEOaWZxf6mFVSR-57" value="" style="shape=tableRow;horizontal=0;startSize=0;swimlaneHead=0;swimlaneBody=0;fillColor=none;collapsible=0;dropTarget=0;points=[[0,0.5],[1,0.5]];portConstraint=eastwest;top=0;left=0;right=0;bottom=1;" vertex="1" parent="HDdBaKYEOaWZxf6mFVSR-56">
          <mxGeometry y="30" width="220" height="30" as="geometry" />
        </mxCell>
        <mxCell id="HDdBaKYEOaWZxf6mFVSR-58" value="PK" style="shape=partialRectangle;connectable=0;top=0;left=0;bottom=0;right=0;fontStyle=1;overflow=hidden;whiteSpace=wrap;html=1;fontColor=#666666;" vertex="1" parent="HDdBaKYEOaWZxf6mFVSR-57">
          <mxGeometry width="30" height="30" as="geometry">
            <mxRectangle width="30" height="30" as="alternateBounds" />
          </mxGeometry>
        </mxCell>
        <mxCell id="HDdBaKYEOaWZxf6mFVSR-59" value="takeaway_id" style="shape=partialRectangle;connectable=0;top=0;left=0;bottom=0;right=0;align=left;spacingLeft=6;fontStyle=1;overflow=hidden;whiteSpace=wrap;html=1;fontColor=#666666;" vertex="1" parent="HDdBaKYEOaWZxf6mFVSR-57">
          <mxGeometry x="30" width="110" height="30" as="geometry">
            <mxRectangle width="110" height="30" as="alternateBounds" />
          </mxGeometry>
        </mxCell>
        <mxCell id="HDdBaKYEOaWZxf6mFVSR-60" value="int" style="shape=partialRectangle;connectable=0;top=0;left=0;bottom=0;right=0;align=center;spacingLeft=0;fontStyle=2;overflow=hidden;whiteSpace=wrap;html=1;fontColor=#666666;strokeColor=#FFFCFD;" vertex="1" parent="HDdBaKYEOaWZxf6mFVSR-57">
          <mxGeometry x="140" width="80" height="30" as="geometry">
            <mxRectangle width="80" height="30" as="alternateBounds" />
          </mxGeometry>
        </mxCell>
        <mxCell id="HDdBaKYEOaWZxf6mFVSR-61" value="" style="shape=tableRow;horizontal=0;startSize=0;swimlaneHead=0;swimlaneBody=0;fillColor=none;collapsible=0;dropTarget=0;points=[[0,0.5],[1,0.5]];portConstraint=eastwest;top=0;left=0;right=0;bottom=0;" vertex="1" parent="HDdBaKYEOaWZxf6mFVSR-56">
          <mxGeometry y="60" width="220" height="30" as="geometry" />
        </mxCell>
        <mxCell id="HDdBaKYEOaWZxf6mFVSR-62" value="" style="shape=partialRectangle;connectable=0;top=0;left=0;bottom=0;right=0;editable=1;overflow=hidden;whiteSpace=wrap;html=1;fontColor=#666666;" vertex="1" parent="HDdBaKYEOaWZxf6mFVSR-61">
          <mxGeometry width="30" height="30" as="geometry">
            <mxRectangle width="30" height="30" as="alternateBounds" />
          </mxGeometry>
        </mxCell>
        <mxCell id="HDdBaKYEOaWZxf6mFVSR-63" value="takeaway" style="shape=partialRectangle;connectable=0;top=0;left=0;bottom=0;right=0;align=left;spacingLeft=6;overflow=hidden;whiteSpace=wrap;html=1;fontColor=#666666;" vertex="1" parent="HDdBaKYEOaWZxf6mFVSR-61">
          <mxGeometry x="30" width="110" height="30" as="geometry">
            <mxRectangle width="110" height="30" as="alternateBounds" />
          </mxGeometry>
        </mxCell>
        <mxCell id="HDdBaKYEOaWZxf6mFVSR-64" value="text" style="shape=partialRectangle;connectable=0;top=0;left=0;bottom=0;right=0;align=center;spacingLeft=0;overflow=hidden;whiteSpace=wrap;html=1;fontColor=#666666;strokeColor=#FFFCFD;fontStyle=2" vertex="1" parent="HDdBaKYEOaWZxf6mFVSR-61">
          <mxGeometry x="140" width="80" height="30" as="geometry">
            <mxRectangle width="80" height="30" as="alternateBounds" />
          </mxGeometry>
        </mxCell>
        <mxCell id="HDdBaKYEOaWZxf6mFVSR-85" value="dim_order_details" style="shape=table;startSize=30;container=1;collapsible=1;childLayout=tableLayout;fixedRows=1;rowLines=0;fontStyle=1;align=center;resizeLast=1;html=1;fillColor=#1ba1e2;strokeColor=#006EAF;fontColor=#ffffff;" vertex="1" parent="1">
          <mxGeometry x="1002" y="200" width="220" height="150" as="geometry" />
        </mxCell>
        <mxCell id="HDdBaKYEOaWZxf6mFVSR-86" value="" style="shape=tableRow;horizontal=0;startSize=0;swimlaneHead=0;swimlaneBody=0;fillColor=none;collapsible=0;dropTarget=0;points=[[0,0.5],[1,0.5]];portConstraint=eastwest;top=0;left=0;right=0;bottom=1;" vertex="1" parent="HDdBaKYEOaWZxf6mFVSR-85">
          <mxGeometry y="30" width="220" height="30" as="geometry" />
        </mxCell>
        <mxCell id="HDdBaKYEOaWZxf6mFVSR-87" value="PK" style="shape=partialRectangle;connectable=0;top=0;left=0;bottom=0;right=0;fontStyle=1;overflow=hidden;whiteSpace=wrap;html=1;fontColor=#666666;" vertex="1" parent="HDdBaKYEOaWZxf6mFVSR-86">
          <mxGeometry width="30" height="30" as="geometry">
            <mxRectangle width="30" height="30" as="alternateBounds" />
          </mxGeometry>
        </mxCell>
        <mxCell id="HDdBaKYEOaWZxf6mFVSR-88" value="row_id" style="shape=partialRectangle;connectable=0;top=0;left=0;bottom=0;right=0;align=left;spacingLeft=6;fontStyle=1;overflow=hidden;whiteSpace=wrap;html=1;fontColor=#666666;" vertex="1" parent="HDdBaKYEOaWZxf6mFVSR-86">
          <mxGeometry x="30" width="110" height="30" as="geometry">
            <mxRectangle width="110" height="30" as="alternateBounds" />
          </mxGeometry>
        </mxCell>
        <mxCell id="HDdBaKYEOaWZxf6mFVSR-89" value="int" style="shape=partialRectangle;connectable=0;top=0;left=0;bottom=0;right=0;align=center;spacingLeft=0;fontStyle=2;overflow=hidden;whiteSpace=wrap;html=1;fontColor=#666666;strokeColor=#FFFCFD;" vertex="1" parent="HDdBaKYEOaWZxf6mFVSR-86">
          <mxGeometry x="140" width="80" height="30" as="geometry">
            <mxRectangle width="80" height="30" as="alternateBounds" />
          </mxGeometry>
        </mxCell>
        <mxCell id="HDdBaKYEOaWZxf6mFVSR-90" value="" style="shape=tableRow;horizontal=0;startSize=0;swimlaneHead=0;swimlaneBody=0;fillColor=none;collapsible=0;dropTarget=0;points=[[0,0.5],[1,0.5]];portConstraint=eastwest;top=0;left=0;right=0;bottom=0;" vertex="1" parent="HDdBaKYEOaWZxf6mFVSR-85">
          <mxGeometry y="60" width="220" height="30" as="geometry" />
        </mxCell>
        <mxCell id="HDdBaKYEOaWZxf6mFVSR-91" value="FK" style="shape=partialRectangle;connectable=0;top=0;left=0;bottom=0;right=0;editable=1;overflow=hidden;whiteSpace=wrap;html=1;fontColor=#666666;" vertex="1" parent="HDdBaKYEOaWZxf6mFVSR-90">
          <mxGeometry width="30" height="30" as="geometry">
            <mxRectangle width="30" height="30" as="alternateBounds" />
          </mxGeometry>
        </mxCell>
        <mxCell id="HDdBaKYEOaWZxf6mFVSR-92" value="order_no" style="shape=partialRectangle;connectable=0;top=0;left=0;bottom=0;right=0;align=left;spacingLeft=6;overflow=hidden;whiteSpace=wrap;html=1;fontColor=#666666;" vertex="1" parent="HDdBaKYEOaWZxf6mFVSR-90">
          <mxGeometry x="30" width="110" height="30" as="geometry">
            <mxRectangle width="110" height="30" as="alternateBounds" />
          </mxGeometry>
        </mxCell>
        <mxCell id="HDdBaKYEOaWZxf6mFVSR-93" value="varchar(7)" style="shape=partialRectangle;connectable=0;top=0;left=0;bottom=0;right=0;align=center;spacingLeft=0;overflow=hidden;whiteSpace=wrap;html=1;fontColor=#666666;strokeColor=#FFFCFD;fontStyle=2" vertex="1" parent="HDdBaKYEOaWZxf6mFVSR-90">
          <mxGeometry x="140" width="80" height="30" as="geometry">
            <mxRectangle width="80" height="30" as="alternateBounds" />
          </mxGeometry>
        </mxCell>
        <mxCell id="HDdBaKYEOaWZxf6mFVSR-98" style="shape=tableRow;horizontal=0;startSize=0;swimlaneHead=0;swimlaneBody=0;fillColor=none;collapsible=0;dropTarget=0;points=[[0,0.5],[1,0.5]];portConstraint=eastwest;top=0;left=0;right=0;bottom=0;" vertex="1" parent="HDdBaKYEOaWZxf6mFVSR-85">
          <mxGeometry y="90" width="220" height="30" as="geometry" />
        </mxCell>
        <mxCell id="HDdBaKYEOaWZxf6mFVSR-99" value="FK" style="shape=partialRectangle;connectable=0;top=0;left=0;bottom=0;right=0;editable=1;overflow=hidden;whiteSpace=wrap;html=1;fontColor=#666666;" vertex="1" parent="HDdBaKYEOaWZxf6mFVSR-98">
          <mxGeometry width="30" height="30" as="geometry">
            <mxRectangle width="30" height="30" as="alternateBounds" />
          </mxGeometry>
        </mxCell>
        <mxCell id="HDdBaKYEOaWZxf6mFVSR-100" value="product_id" style="shape=partialRectangle;connectable=0;top=0;left=0;bottom=0;right=0;align=left;spacingLeft=6;overflow=hidden;whiteSpace=wrap;html=1;fontColor=#666666;" vertex="1" parent="HDdBaKYEOaWZxf6mFVSR-98">
          <mxGeometry x="30" width="110" height="30" as="geometry">
            <mxRectangle width="110" height="30" as="alternateBounds" />
          </mxGeometry>
        </mxCell>
        <mxCell id="HDdBaKYEOaWZxf6mFVSR-101" value="int" style="shape=partialRectangle;connectable=0;top=0;left=0;bottom=0;right=0;align=center;spacingLeft=0;overflow=hidden;whiteSpace=wrap;html=1;fontColor=#666666;strokeColor=#FFFCFD;fontStyle=2" vertex="1" parent="HDdBaKYEOaWZxf6mFVSR-98">
          <mxGeometry x="140" width="80" height="30" as="geometry">
            <mxRectangle width="80" height="30" as="alternateBounds" />
          </mxGeometry>
        </mxCell>
        <mxCell id="HDdBaKYEOaWZxf6mFVSR-94" style="shape=tableRow;horizontal=0;startSize=0;swimlaneHead=0;swimlaneBody=0;fillColor=none;collapsible=0;dropTarget=0;points=[[0,0.5],[1,0.5]];portConstraint=eastwest;top=0;left=0;right=0;bottom=0;" vertex="1" parent="HDdBaKYEOaWZxf6mFVSR-85">
          <mxGeometry y="120" width="220" height="30" as="geometry" />
        </mxCell>
        <mxCell id="HDdBaKYEOaWZxf6mFVSR-95" style="shape=partialRectangle;connectable=0;top=0;left=0;bottom=0;right=0;editable=1;overflow=hidden;whiteSpace=wrap;html=1;fontColor=#666666;" vertex="1" parent="HDdBaKYEOaWZxf6mFVSR-94">
          <mxGeometry width="30" height="30" as="geometry">
            <mxRectangle width="30" height="30" as="alternateBounds" />
          </mxGeometry>
        </mxCell>
        <mxCell id="HDdBaKYEOaWZxf6mFVSR-96" value="amount" style="shape=partialRectangle;connectable=0;top=0;left=0;bottom=0;right=0;align=left;spacingLeft=6;overflow=hidden;whiteSpace=wrap;html=1;fontColor=#666666;" vertex="1" parent="HDdBaKYEOaWZxf6mFVSR-94">
          <mxGeometry x="30" width="110" height="30" as="geometry">
            <mxRectangle width="110" height="30" as="alternateBounds" />
          </mxGeometry>
        </mxCell>
        <mxCell id="HDdBaKYEOaWZxf6mFVSR-97" value="int" style="shape=partialRectangle;connectable=0;top=0;left=0;bottom=0;right=0;align=center;spacingLeft=0;overflow=hidden;whiteSpace=wrap;html=1;fontColor=#666666;strokeColor=#FFFCFD;fontStyle=2" vertex="1" parent="HDdBaKYEOaWZxf6mFVSR-94">
          <mxGeometry x="140" width="80" height="30" as="geometry">
            <mxRectangle width="80" height="30" as="alternateBounds" />
          </mxGeometry>
        </mxCell>
        <mxCell id="HDdBaKYEOaWZxf6mFVSR-102" value="dim_products" style="shape=table;startSize=30;container=1;collapsible=1;childLayout=tableLayout;fixedRows=1;rowLines=0;fontStyle=1;align=center;resizeLast=1;html=1;fillColor=#1ba1e2;strokeColor=#006EAF;fontColor=#ffffff;" vertex="1" parent="1">
          <mxGeometry x="1002" y="450" width="220" height="150" as="geometry" />
        </mxCell>
        <mxCell id="HDdBaKYEOaWZxf6mFVSR-103" value="" style="shape=tableRow;horizontal=0;startSize=0;swimlaneHead=0;swimlaneBody=0;fillColor=none;collapsible=0;dropTarget=0;points=[[0,0.5],[1,0.5]];portConstraint=eastwest;top=0;left=0;right=0;bottom=1;" vertex="1" parent="HDdBaKYEOaWZxf6mFVSR-102">
          <mxGeometry y="30" width="220" height="30" as="geometry" />
        </mxCell>
        <mxCell id="HDdBaKYEOaWZxf6mFVSR-104" value="PK" style="shape=partialRectangle;connectable=0;top=0;left=0;bottom=0;right=0;fontStyle=1;overflow=hidden;whiteSpace=wrap;html=1;fontColor=#666666;" vertex="1" parent="HDdBaKYEOaWZxf6mFVSR-103">
          <mxGeometry width="30" height="30" as="geometry">
            <mxRectangle width="30" height="30" as="alternateBounds" />
          </mxGeometry>
        </mxCell>
        <mxCell id="HDdBaKYEOaWZxf6mFVSR-105" value="product_id" style="shape=partialRectangle;connectable=0;top=0;left=0;bottom=0;right=0;align=left;spacingLeft=6;fontStyle=1;overflow=hidden;whiteSpace=wrap;html=1;fontColor=#666666;" vertex="1" parent="HDdBaKYEOaWZxf6mFVSR-103">
          <mxGeometry x="30" width="110" height="30" as="geometry">
            <mxRectangle width="110" height="30" as="alternateBounds" />
          </mxGeometry>
        </mxCell>
        <mxCell id="HDdBaKYEOaWZxf6mFVSR-106" value="int" style="shape=partialRectangle;connectable=0;top=0;left=0;bottom=0;right=0;align=center;spacingLeft=0;fontStyle=2;overflow=hidden;whiteSpace=wrap;html=1;fontColor=#666666;strokeColor=#FFFCFD;" vertex="1" parent="HDdBaKYEOaWZxf6mFVSR-103">
          <mxGeometry x="140" width="80" height="30" as="geometry">
            <mxRectangle width="80" height="30" as="alternateBounds" />
          </mxGeometry>
        </mxCell>
        <mxCell id="HDdBaKYEOaWZxf6mFVSR-107" value="" style="shape=tableRow;horizontal=0;startSize=0;swimlaneHead=0;swimlaneBody=0;fillColor=none;collapsible=0;dropTarget=0;points=[[0,0.5],[1,0.5]];portConstraint=eastwest;top=0;left=0;right=0;bottom=0;" vertex="1" parent="HDdBaKYEOaWZxf6mFVSR-102">
          <mxGeometry y="60" width="220" height="30" as="geometry" />
        </mxCell>
        <mxCell id="HDdBaKYEOaWZxf6mFVSR-108" value="" style="shape=partialRectangle;connectable=0;top=0;left=0;bottom=0;right=0;editable=1;overflow=hidden;whiteSpace=wrap;html=1;fontColor=#666666;" vertex="1" parent="HDdBaKYEOaWZxf6mFVSR-107">
          <mxGeometry width="30" height="30" as="geometry">
            <mxRectangle width="30" height="30" as="alternateBounds" />
          </mxGeometry>
        </mxCell>
        <mxCell id="HDdBaKYEOaWZxf6mFVSR-109" value="product_name" style="shape=partialRectangle;connectable=0;top=0;left=0;bottom=0;right=0;align=left;spacingLeft=6;overflow=hidden;whiteSpace=wrap;html=1;fontColor=#666666;" vertex="1" parent="HDdBaKYEOaWZxf6mFVSR-107">
          <mxGeometry x="30" width="110" height="30" as="geometry">
            <mxRectangle width="110" height="30" as="alternateBounds" />
          </mxGeometry>
        </mxCell>
        <mxCell id="HDdBaKYEOaWZxf6mFVSR-110" value="text" style="shape=partialRectangle;connectable=0;top=0;left=0;bottom=0;right=0;align=center;spacingLeft=0;overflow=hidden;whiteSpace=wrap;html=1;fontColor=#666666;strokeColor=#FFFCFD;fontStyle=2" vertex="1" parent="HDdBaKYEOaWZxf6mFVSR-107">
          <mxGeometry x="140" width="80" height="30" as="geometry">
            <mxRectangle width="80" height="30" as="alternateBounds" />
          </mxGeometry>
        </mxCell>
        <mxCell id="HDdBaKYEOaWZxf6mFVSR-111" style="shape=tableRow;horizontal=0;startSize=0;swimlaneHead=0;swimlaneBody=0;fillColor=none;collapsible=0;dropTarget=0;points=[[0,0.5],[1,0.5]];portConstraint=eastwest;top=0;left=0;right=0;bottom=0;" vertex="1" parent="HDdBaKYEOaWZxf6mFVSR-102">
          <mxGeometry y="90" width="220" height="30" as="geometry" />
        </mxCell>
        <mxCell id="HDdBaKYEOaWZxf6mFVSR-112" value="FK" style="shape=partialRectangle;connectable=0;top=0;left=0;bottom=0;right=0;editable=1;overflow=hidden;whiteSpace=wrap;html=1;fontColor=#666666;" vertex="1" parent="HDdBaKYEOaWZxf6mFVSR-111">
          <mxGeometry width="30" height="30" as="geometry">
            <mxRectangle width="30" height="30" as="alternateBounds" />
          </mxGeometry>
        </mxCell>
        <mxCell id="HDdBaKYEOaWZxf6mFVSR-113" value="category_id" style="shape=partialRectangle;connectable=0;top=0;left=0;bottom=0;right=0;align=left;spacingLeft=6;overflow=hidden;whiteSpace=wrap;html=1;fontColor=#666666;" vertex="1" parent="HDdBaKYEOaWZxf6mFVSR-111">
          <mxGeometry x="30" width="110" height="30" as="geometry">
            <mxRectangle width="110" height="30" as="alternateBounds" />
          </mxGeometry>
        </mxCell>
        <mxCell id="HDdBaKYEOaWZxf6mFVSR-114" value="int" style="shape=partialRectangle;connectable=0;top=0;left=0;bottom=0;right=0;align=center;spacingLeft=0;overflow=hidden;whiteSpace=wrap;html=1;fontColor=#666666;strokeColor=#FFFCFD;fontStyle=2" vertex="1" parent="HDdBaKYEOaWZxf6mFVSR-111">
          <mxGeometry x="140" width="80" height="30" as="geometry">
            <mxRectangle width="80" height="30" as="alternateBounds" />
          </mxGeometry>
        </mxCell>
        <mxCell id="HDdBaKYEOaWZxf6mFVSR-115" style="shape=tableRow;horizontal=0;startSize=0;swimlaneHead=0;swimlaneBody=0;fillColor=none;collapsible=0;dropTarget=0;points=[[0,0.5],[1,0.5]];portConstraint=eastwest;top=0;left=0;right=0;bottom=0;" vertex="1" parent="HDdBaKYEOaWZxf6mFVSR-102">
          <mxGeometry y="120" width="220" height="30" as="geometry" />
        </mxCell>
        <mxCell id="HDdBaKYEOaWZxf6mFVSR-116" value="FK" style="shape=partialRectangle;connectable=0;top=0;left=0;bottom=0;right=0;editable=1;overflow=hidden;whiteSpace=wrap;html=1;fontColor=#666666;" vertex="1" parent="HDdBaKYEOaWZxf6mFVSR-115">
          <mxGeometry width="30" height="30" as="geometry">
            <mxRectangle width="30" height="30" as="alternateBounds" />
          </mxGeometry>
        </mxCell>
        <mxCell id="HDdBaKYEOaWZxf6mFVSR-117" value="price_id" style="shape=partialRectangle;connectable=0;top=0;left=0;bottom=0;right=0;align=left;spacingLeft=6;overflow=hidden;whiteSpace=wrap;html=1;fontColor=#666666;" vertex="1" parent="HDdBaKYEOaWZxf6mFVSR-115">
          <mxGeometry x="30" width="110" height="30" as="geometry">
            <mxRectangle width="110" height="30" as="alternateBounds" />
          </mxGeometry>
        </mxCell>
        <mxCell id="HDdBaKYEOaWZxf6mFVSR-118" value="int" style="shape=partialRectangle;connectable=0;top=0;left=0;bottom=0;right=0;align=center;spacingLeft=0;overflow=hidden;whiteSpace=wrap;html=1;fontColor=#666666;strokeColor=#FFFCFD;fontStyle=2" vertex="1" parent="HDdBaKYEOaWZxf6mFVSR-115">
          <mxGeometry x="140" width="80" height="30" as="geometry">
            <mxRectangle width="80" height="30" as="alternateBounds" />
          </mxGeometry>
        </mxCell>
        <mxCell id="HDdBaKYEOaWZxf6mFVSR-119" value="dim_product_category" style="shape=table;startSize=30;container=1;collapsible=1;childLayout=tableLayout;fixedRows=1;rowLines=0;fontStyle=1;align=center;resizeLast=1;html=1;fillColor=#1ba1e2;strokeColor=#006EAF;fontColor=#ffffff;" vertex="1" parent="1">
          <mxGeometry x="1002" y="650" width="220" height="90" as="geometry" />
        </mxCell>
        <mxCell id="HDdBaKYEOaWZxf6mFVSR-120" value="" style="shape=tableRow;horizontal=0;startSize=0;swimlaneHead=0;swimlaneBody=0;fillColor=none;collapsible=0;dropTarget=0;points=[[0,0.5],[1,0.5]];portConstraint=eastwest;top=0;left=0;right=0;bottom=1;" vertex="1" parent="HDdBaKYEOaWZxf6mFVSR-119">
          <mxGeometry y="30" width="220" height="30" as="geometry" />
        </mxCell>
        <mxCell id="HDdBaKYEOaWZxf6mFVSR-121" value="PK" style="shape=partialRectangle;connectable=0;top=0;left=0;bottom=0;right=0;fontStyle=1;overflow=hidden;whiteSpace=wrap;html=1;fontColor=#666666;" vertex="1" parent="HDdBaKYEOaWZxf6mFVSR-120">
          <mxGeometry width="30" height="30" as="geometry">
            <mxRectangle width="30" height="30" as="alternateBounds" />
          </mxGeometry>
        </mxCell>
        <mxCell id="HDdBaKYEOaWZxf6mFVSR-122" value="category_id" style="shape=partialRectangle;connectable=0;top=0;left=0;bottom=0;right=0;align=left;spacingLeft=6;fontStyle=1;overflow=hidden;whiteSpace=wrap;html=1;fontColor=#666666;" vertex="1" parent="HDdBaKYEOaWZxf6mFVSR-120">
          <mxGeometry x="30" width="110" height="30" as="geometry">
            <mxRectangle width="110" height="30" as="alternateBounds" />
          </mxGeometry>
        </mxCell>
        <mxCell id="HDdBaKYEOaWZxf6mFVSR-123" value="int" style="shape=partialRectangle;connectable=0;top=0;left=0;bottom=0;right=0;align=center;spacingLeft=0;fontStyle=2;overflow=hidden;whiteSpace=wrap;html=1;fontColor=#666666;strokeColor=#FFFCFD;" vertex="1" parent="HDdBaKYEOaWZxf6mFVSR-120">
          <mxGeometry x="140" width="80" height="30" as="geometry">
            <mxRectangle width="80" height="30" as="alternateBounds" />
          </mxGeometry>
        </mxCell>
        <mxCell id="HDdBaKYEOaWZxf6mFVSR-124" value="" style="shape=tableRow;horizontal=0;startSize=0;swimlaneHead=0;swimlaneBody=0;fillColor=none;collapsible=0;dropTarget=0;points=[[0,0.5],[1,0.5]];portConstraint=eastwest;top=0;left=0;right=0;bottom=0;" vertex="1" parent="HDdBaKYEOaWZxf6mFVSR-119">
          <mxGeometry y="60" width="220" height="30" as="geometry" />
        </mxCell>
        <mxCell id="HDdBaKYEOaWZxf6mFVSR-125" value="" style="shape=partialRectangle;connectable=0;top=0;left=0;bottom=0;right=0;editable=1;overflow=hidden;whiteSpace=wrap;html=1;fontColor=#666666;" vertex="1" parent="HDdBaKYEOaWZxf6mFVSR-124">
          <mxGeometry width="30" height="30" as="geometry">
            <mxRectangle width="30" height="30" as="alternateBounds" />
          </mxGeometry>
        </mxCell>
        <mxCell id="HDdBaKYEOaWZxf6mFVSR-126" value="category_name" style="shape=partialRectangle;connectable=0;top=0;left=0;bottom=0;right=0;align=left;spacingLeft=6;overflow=hidden;whiteSpace=wrap;html=1;fontColor=#666666;" vertex="1" parent="HDdBaKYEOaWZxf6mFVSR-124">
          <mxGeometry x="30" width="110" height="30" as="geometry">
            <mxRectangle width="110" height="30" as="alternateBounds" />
          </mxGeometry>
        </mxCell>
        <mxCell id="HDdBaKYEOaWZxf6mFVSR-127" value="text" style="shape=partialRectangle;connectable=0;top=0;left=0;bottom=0;right=0;align=center;spacingLeft=0;overflow=hidden;whiteSpace=wrap;html=1;fontColor=#666666;strokeColor=#FFFCFD;fontStyle=2" vertex="1" parent="HDdBaKYEOaWZxf6mFVSR-124">
          <mxGeometry x="140" width="80" height="30" as="geometry">
            <mxRectangle width="80" height="30" as="alternateBounds" />
          </mxGeometry>
        </mxCell>
        <mxCell id="HDdBaKYEOaWZxf6mFVSR-136" value="dim_product_price" style="shape=table;startSize=30;container=1;collapsible=1;childLayout=tableLayout;fixedRows=1;rowLines=0;fontStyle=1;align=center;resizeLast=1;html=1;fillColor=#1ba1e2;strokeColor=#006EAF;fontColor=#ffffff;" vertex="1" parent="1">
          <mxGeometry x="1312" y="650" width="220" height="90" as="geometry" />
        </mxCell>
        <mxCell id="HDdBaKYEOaWZxf6mFVSR-137" value="" style="shape=tableRow;horizontal=0;startSize=0;swimlaneHead=0;swimlaneBody=0;fillColor=none;collapsible=0;dropTarget=0;points=[[0,0.5],[1,0.5]];portConstraint=eastwest;top=0;left=0;right=0;bottom=1;" vertex="1" parent="HDdBaKYEOaWZxf6mFVSR-136">
          <mxGeometry y="30" width="220" height="30" as="geometry" />
        </mxCell>
        <mxCell id="HDdBaKYEOaWZxf6mFVSR-138" value="PK" style="shape=partialRectangle;connectable=0;top=0;left=0;bottom=0;right=0;fontStyle=1;overflow=hidden;whiteSpace=wrap;html=1;fontColor=#666666;" vertex="1" parent="HDdBaKYEOaWZxf6mFVSR-137">
          <mxGeometry width="30" height="30" as="geometry">
            <mxRectangle width="30" height="30" as="alternateBounds" />
          </mxGeometry>
        </mxCell>
        <mxCell id="HDdBaKYEOaWZxf6mFVSR-139" value="price_id" style="shape=partialRectangle;connectable=0;top=0;left=0;bottom=0;right=0;align=left;spacingLeft=6;fontStyle=1;overflow=hidden;whiteSpace=wrap;html=1;fontColor=#666666;" vertex="1" parent="HDdBaKYEOaWZxf6mFVSR-137">
          <mxGeometry x="30" width="110" height="30" as="geometry">
            <mxRectangle width="110" height="30" as="alternateBounds" />
          </mxGeometry>
        </mxCell>
        <mxCell id="HDdBaKYEOaWZxf6mFVSR-140" value="int" style="shape=partialRectangle;connectable=0;top=0;left=0;bottom=0;right=0;align=center;spacingLeft=0;fontStyle=2;overflow=hidden;whiteSpace=wrap;html=1;fontColor=#666666;strokeColor=#FFFCFD;" vertex="1" parent="HDdBaKYEOaWZxf6mFVSR-137">
          <mxGeometry x="140" width="80" height="30" as="geometry">
            <mxRectangle width="80" height="30" as="alternateBounds" />
          </mxGeometry>
        </mxCell>
        <mxCell id="HDdBaKYEOaWZxf6mFVSR-141" value="" style="shape=tableRow;horizontal=0;startSize=0;swimlaneHead=0;swimlaneBody=0;fillColor=none;collapsible=0;dropTarget=0;points=[[0,0.5],[1,0.5]];portConstraint=eastwest;top=0;left=0;right=0;bottom=0;" vertex="1" parent="HDdBaKYEOaWZxf6mFVSR-136">
          <mxGeometry y="60" width="220" height="30" as="geometry" />
        </mxCell>
        <mxCell id="HDdBaKYEOaWZxf6mFVSR-142" value="" style="shape=partialRectangle;connectable=0;top=0;left=0;bottom=0;right=0;editable=1;overflow=hidden;whiteSpace=wrap;html=1;fontColor=#666666;" vertex="1" parent="HDdBaKYEOaWZxf6mFVSR-141">
          <mxGeometry width="30" height="30" as="geometry">
            <mxRectangle width="30" height="30" as="alternateBounds" />
          </mxGeometry>
        </mxCell>
        <mxCell id="HDdBaKYEOaWZxf6mFVSR-143" value="price" style="shape=partialRectangle;connectable=0;top=0;left=0;bottom=0;right=0;align=left;spacingLeft=6;overflow=hidden;whiteSpace=wrap;html=1;fontColor=#666666;" vertex="1" parent="HDdBaKYEOaWZxf6mFVSR-141">
          <mxGeometry x="30" width="110" height="30" as="geometry">
            <mxRectangle width="110" height="30" as="alternateBounds" />
          </mxGeometry>
        </mxCell>
        <mxCell id="HDdBaKYEOaWZxf6mFVSR-144" value="numeric" style="shape=partialRectangle;connectable=0;top=0;left=0;bottom=0;right=0;align=center;spacingLeft=0;overflow=hidden;whiteSpace=wrap;html=1;fontColor=#666666;strokeColor=#FFFCFD;fontStyle=2" vertex="1" parent="HDdBaKYEOaWZxf6mFVSR-141">
          <mxGeometry x="140" width="80" height="30" as="geometry">
            <mxRectangle width="80" height="30" as="alternateBounds" />
          </mxGeometry>
        </mxCell>
        <mxCell id="HDdBaKYEOaWZxf6mFVSR-145" value="dim_product_ingredients" style="shape=table;startSize=30;container=1;collapsible=1;childLayout=tableLayout;fixedRows=1;rowLines=0;fontStyle=1;align=center;resizeLast=1;html=1;fillColor=#1ba1e2;strokeColor=#006EAF;fontColor=#ffffff;" vertex="1" parent="1">
          <mxGeometry x="1312" y="450" width="220" height="150" as="geometry" />
        </mxCell>
        <mxCell id="HDdBaKYEOaWZxf6mFVSR-146" value="" style="shape=tableRow;horizontal=0;startSize=0;swimlaneHead=0;swimlaneBody=0;fillColor=none;collapsible=0;dropTarget=0;points=[[0,0.5],[1,0.5]];portConstraint=eastwest;top=0;left=0;right=0;bottom=1;" vertex="1" parent="HDdBaKYEOaWZxf6mFVSR-145">
          <mxGeometry y="30" width="220" height="30" as="geometry" />
        </mxCell>
        <mxCell id="HDdBaKYEOaWZxf6mFVSR-147" value="PK" style="shape=partialRectangle;connectable=0;top=0;left=0;bottom=0;right=0;fontStyle=1;overflow=hidden;whiteSpace=wrap;html=1;fontColor=#666666;" vertex="1" parent="HDdBaKYEOaWZxf6mFVSR-146">
          <mxGeometry width="30" height="30" as="geometry">
            <mxRectangle width="30" height="30" as="alternateBounds" />
          </mxGeometry>
        </mxCell>
        <mxCell id="HDdBaKYEOaWZxf6mFVSR-148" value="recipe_id" style="shape=partialRectangle;connectable=0;top=0;left=0;bottom=0;right=0;align=left;spacingLeft=6;fontStyle=1;overflow=hidden;whiteSpace=wrap;html=1;fontColor=#666666;" vertex="1" parent="HDdBaKYEOaWZxf6mFVSR-146">
          <mxGeometry x="30" width="110" height="30" as="geometry">
            <mxRectangle width="110" height="30" as="alternateBounds" />
          </mxGeometry>
        </mxCell>
        <mxCell id="HDdBaKYEOaWZxf6mFVSR-149" value="int" style="shape=partialRectangle;connectable=0;top=0;left=0;bottom=0;right=0;align=center;spacingLeft=0;fontStyle=2;overflow=hidden;whiteSpace=wrap;html=1;fontColor=#666666;strokeColor=#FFFCFD;" vertex="1" parent="HDdBaKYEOaWZxf6mFVSR-146">
          <mxGeometry x="140" width="80" height="30" as="geometry">
            <mxRectangle width="80" height="30" as="alternateBounds" />
          </mxGeometry>
        </mxCell>
        <mxCell id="HDdBaKYEOaWZxf6mFVSR-150" value="" style="shape=tableRow;horizontal=0;startSize=0;swimlaneHead=0;swimlaneBody=0;fillColor=none;collapsible=0;dropTarget=0;points=[[0,0.5],[1,0.5]];portConstraint=eastwest;top=0;left=0;right=0;bottom=0;" vertex="1" parent="HDdBaKYEOaWZxf6mFVSR-145">
          <mxGeometry y="60" width="220" height="30" as="geometry" />
        </mxCell>
        <mxCell id="HDdBaKYEOaWZxf6mFVSR-151" value="FK" style="shape=partialRectangle;connectable=0;top=0;left=0;bottom=0;right=0;editable=1;overflow=hidden;whiteSpace=wrap;html=1;fontColor=#666666;" vertex="1" parent="HDdBaKYEOaWZxf6mFVSR-150">
          <mxGeometry width="30" height="30" as="geometry">
            <mxRectangle width="30" height="30" as="alternateBounds" />
          </mxGeometry>
        </mxCell>
        <mxCell id="HDdBaKYEOaWZxf6mFVSR-152" value="product_id" style="shape=partialRectangle;connectable=0;top=0;left=0;bottom=0;right=0;align=left;spacingLeft=6;overflow=hidden;whiteSpace=wrap;html=1;fontColor=#666666;" vertex="1" parent="HDdBaKYEOaWZxf6mFVSR-150">
          <mxGeometry x="30" width="110" height="30" as="geometry">
            <mxRectangle width="110" height="30" as="alternateBounds" />
          </mxGeometry>
        </mxCell>
        <mxCell id="HDdBaKYEOaWZxf6mFVSR-153" value="int" style="shape=partialRectangle;connectable=0;top=0;left=0;bottom=0;right=0;align=center;spacingLeft=0;overflow=hidden;whiteSpace=wrap;html=1;fontColor=#666666;strokeColor=#FFFCFD;fontStyle=2" vertex="1" parent="HDdBaKYEOaWZxf6mFVSR-150">
          <mxGeometry x="140" width="80" height="30" as="geometry">
            <mxRectangle width="80" height="30" as="alternateBounds" />
          </mxGeometry>
        </mxCell>
        <mxCell id="HDdBaKYEOaWZxf6mFVSR-154" style="shape=tableRow;horizontal=0;startSize=0;swimlaneHead=0;swimlaneBody=0;fillColor=none;collapsible=0;dropTarget=0;points=[[0,0.5],[1,0.5]];portConstraint=eastwest;top=0;left=0;right=0;bottom=0;" vertex="1" parent="HDdBaKYEOaWZxf6mFVSR-145">
          <mxGeometry y="90" width="220" height="30" as="geometry" />
        </mxCell>
        <mxCell id="HDdBaKYEOaWZxf6mFVSR-155" value="FK" style="shape=partialRectangle;connectable=0;top=0;left=0;bottom=0;right=0;editable=1;overflow=hidden;whiteSpace=wrap;html=1;fontColor=#666666;" vertex="1" parent="HDdBaKYEOaWZxf6mFVSR-154">
          <mxGeometry width="30" height="30" as="geometry">
            <mxRectangle width="30" height="30" as="alternateBounds" />
          </mxGeometry>
        </mxCell>
        <mxCell id="HDdBaKYEOaWZxf6mFVSR-156" value="ingredient_id" style="shape=partialRectangle;connectable=0;top=0;left=0;bottom=0;right=0;align=left;spacingLeft=6;overflow=hidden;whiteSpace=wrap;html=1;fontColor=#666666;" vertex="1" parent="HDdBaKYEOaWZxf6mFVSR-154">
          <mxGeometry x="30" width="110" height="30" as="geometry">
            <mxRectangle width="110" height="30" as="alternateBounds" />
          </mxGeometry>
        </mxCell>
        <mxCell id="HDdBaKYEOaWZxf6mFVSR-157" value="int" style="shape=partialRectangle;connectable=0;top=0;left=0;bottom=0;right=0;align=center;spacingLeft=0;overflow=hidden;whiteSpace=wrap;html=1;fontColor=#666666;strokeColor=#FFFCFD;fontStyle=2" vertex="1" parent="HDdBaKYEOaWZxf6mFVSR-154">
          <mxGeometry x="140" width="80" height="30" as="geometry">
            <mxRectangle width="80" height="30" as="alternateBounds" />
          </mxGeometry>
        </mxCell>
        <mxCell id="HDdBaKYEOaWZxf6mFVSR-158" style="shape=tableRow;horizontal=0;startSize=0;swimlaneHead=0;swimlaneBody=0;fillColor=none;collapsible=0;dropTarget=0;points=[[0,0.5],[1,0.5]];portConstraint=eastwest;top=0;left=0;right=0;bottom=0;" vertex="1" parent="HDdBaKYEOaWZxf6mFVSR-145">
          <mxGeometry y="120" width="220" height="30" as="geometry" />
        </mxCell>
        <mxCell id="HDdBaKYEOaWZxf6mFVSR-159" value="" style="shape=partialRectangle;connectable=0;top=0;left=0;bottom=0;right=0;editable=1;overflow=hidden;whiteSpace=wrap;html=1;fontColor=#666666;" vertex="1" parent="HDdBaKYEOaWZxf6mFVSR-158">
          <mxGeometry width="30" height="30" as="geometry">
            <mxRectangle width="30" height="30" as="alternateBounds" />
          </mxGeometry>
        </mxCell>
        <mxCell id="HDdBaKYEOaWZxf6mFVSR-160" value="amount_kg" style="shape=partialRectangle;connectable=0;top=0;left=0;bottom=0;right=0;align=left;spacingLeft=6;overflow=hidden;whiteSpace=wrap;html=1;fontColor=#666666;" vertex="1" parent="HDdBaKYEOaWZxf6mFVSR-158">
          <mxGeometry x="30" width="110" height="30" as="geometry">
            <mxRectangle width="110" height="30" as="alternateBounds" />
          </mxGeometry>
        </mxCell>
        <mxCell id="HDdBaKYEOaWZxf6mFVSR-161" value="numeric" style="shape=partialRectangle;connectable=0;top=0;left=0;bottom=0;right=0;align=center;spacingLeft=0;overflow=hidden;whiteSpace=wrap;html=1;fontColor=#666666;strokeColor=#FFFCFD;fontStyle=2" vertex="1" parent="HDdBaKYEOaWZxf6mFVSR-158">
          <mxGeometry x="140" width="80" height="30" as="geometry">
            <mxRectangle width="80" height="30" as="alternateBounds" />
          </mxGeometry>
        </mxCell>
        <mxCell id="HDdBaKYEOaWZxf6mFVSR-162" value="dim_ingredient_cost" style="shape=table;startSize=30;container=1;collapsible=1;childLayout=tableLayout;fixedRows=1;rowLines=0;fontStyle=1;align=center;resizeLast=1;html=1;fillColor=#1ba1e2;strokeColor=#006EAF;fontColor=#ffffff;" vertex="1" parent="1">
          <mxGeometry x="1312" y="240" width="220" height="120" as="geometry" />
        </mxCell>
        <mxCell id="HDdBaKYEOaWZxf6mFVSR-163" value="" style="shape=tableRow;horizontal=0;startSize=0;swimlaneHead=0;swimlaneBody=0;fillColor=none;collapsible=0;dropTarget=0;points=[[0,0.5],[1,0.5]];portConstraint=eastwest;top=0;left=0;right=0;bottom=1;" vertex="1" parent="HDdBaKYEOaWZxf6mFVSR-162">
          <mxGeometry y="30" width="220" height="30" as="geometry" />
        </mxCell>
        <mxCell id="HDdBaKYEOaWZxf6mFVSR-164" value="PK" style="shape=partialRectangle;connectable=0;top=0;left=0;bottom=0;right=0;fontStyle=1;overflow=hidden;whiteSpace=wrap;html=1;fontColor=#666666;" vertex="1" parent="HDdBaKYEOaWZxf6mFVSR-163">
          <mxGeometry width="30" height="30" as="geometry">
            <mxRectangle width="30" height="30" as="alternateBounds" />
          </mxGeometry>
        </mxCell>
        <mxCell id="HDdBaKYEOaWZxf6mFVSR-165" value="ingredient_id" style="shape=partialRectangle;connectable=0;top=0;left=0;bottom=0;right=0;align=left;spacingLeft=6;fontStyle=1;overflow=hidden;whiteSpace=wrap;html=1;fontColor=#666666;" vertex="1" parent="HDdBaKYEOaWZxf6mFVSR-163">
          <mxGeometry x="30" width="110" height="30" as="geometry">
            <mxRectangle width="110" height="30" as="alternateBounds" />
          </mxGeometry>
        </mxCell>
        <mxCell id="HDdBaKYEOaWZxf6mFVSR-166" value="int" style="shape=partialRectangle;connectable=0;top=0;left=0;bottom=0;right=0;align=center;spacingLeft=0;fontStyle=2;overflow=hidden;whiteSpace=wrap;html=1;fontColor=#666666;strokeColor=#FFFCFD;" vertex="1" parent="HDdBaKYEOaWZxf6mFVSR-163">
          <mxGeometry x="140" width="80" height="30" as="geometry">
            <mxRectangle width="80" height="30" as="alternateBounds" />
          </mxGeometry>
        </mxCell>
        <mxCell id="HDdBaKYEOaWZxf6mFVSR-167" value="" style="shape=tableRow;horizontal=0;startSize=0;swimlaneHead=0;swimlaneBody=0;fillColor=none;collapsible=0;dropTarget=0;points=[[0,0.5],[1,0.5]];portConstraint=eastwest;top=0;left=0;right=0;bottom=0;" vertex="1" parent="HDdBaKYEOaWZxf6mFVSR-162">
          <mxGeometry y="60" width="220" height="30" as="geometry" />
        </mxCell>
        <mxCell id="HDdBaKYEOaWZxf6mFVSR-168" value="" style="shape=partialRectangle;connectable=0;top=0;left=0;bottom=0;right=0;editable=1;overflow=hidden;whiteSpace=wrap;html=1;fontColor=#666666;" vertex="1" parent="HDdBaKYEOaWZxf6mFVSR-167">
          <mxGeometry width="30" height="30" as="geometry">
            <mxRectangle width="30" height="30" as="alternateBounds" />
          </mxGeometry>
        </mxCell>
        <mxCell id="HDdBaKYEOaWZxf6mFVSR-169" value="ingredient_name" style="shape=partialRectangle;connectable=0;top=0;left=0;bottom=0;right=0;align=left;spacingLeft=6;overflow=hidden;whiteSpace=wrap;html=1;fontColor=#666666;" vertex="1" parent="HDdBaKYEOaWZxf6mFVSR-167">
          <mxGeometry x="30" width="110" height="30" as="geometry">
            <mxRectangle width="110" height="30" as="alternateBounds" />
          </mxGeometry>
        </mxCell>
        <mxCell id="HDdBaKYEOaWZxf6mFVSR-170" value="text" style="shape=partialRectangle;connectable=0;top=0;left=0;bottom=0;right=0;align=center;spacingLeft=0;overflow=hidden;whiteSpace=wrap;html=1;fontColor=#666666;strokeColor=#FFFCFD;fontStyle=2" vertex="1" parent="HDdBaKYEOaWZxf6mFVSR-167">
          <mxGeometry x="140" width="80" height="30" as="geometry">
            <mxRectangle width="80" height="30" as="alternateBounds" />
          </mxGeometry>
        </mxCell>
        <mxCell id="HDdBaKYEOaWZxf6mFVSR-171" style="shape=tableRow;horizontal=0;startSize=0;swimlaneHead=0;swimlaneBody=0;fillColor=none;collapsible=0;dropTarget=0;points=[[0,0.5],[1,0.5]];portConstraint=eastwest;top=0;left=0;right=0;bottom=0;" vertex="1" parent="HDdBaKYEOaWZxf6mFVSR-162">
          <mxGeometry y="90" width="220" height="30" as="geometry" />
        </mxCell>
        <mxCell id="HDdBaKYEOaWZxf6mFVSR-172" value="" style="shape=partialRectangle;connectable=0;top=0;left=0;bottom=0;right=0;editable=1;overflow=hidden;whiteSpace=wrap;html=1;fontColor=#666666;" vertex="1" parent="HDdBaKYEOaWZxf6mFVSR-171">
          <mxGeometry width="30" height="30" as="geometry">
            <mxRectangle width="30" height="30" as="alternateBounds" />
          </mxGeometry>
        </mxCell>
        <mxCell id="HDdBaKYEOaWZxf6mFVSR-173" value="cost_kg" style="shape=partialRectangle;connectable=0;top=0;left=0;bottom=0;right=0;align=left;spacingLeft=6;overflow=hidden;whiteSpace=wrap;html=1;fontColor=#666666;" vertex="1" parent="HDdBaKYEOaWZxf6mFVSR-171">
          <mxGeometry x="30" width="110" height="30" as="geometry">
            <mxRectangle width="110" height="30" as="alternateBounds" />
          </mxGeometry>
        </mxCell>
        <mxCell id="HDdBaKYEOaWZxf6mFVSR-174" value="int" style="shape=partialRectangle;connectable=0;top=0;left=0;bottom=0;right=0;align=center;spacingLeft=0;overflow=hidden;whiteSpace=wrap;html=1;fontColor=#666666;strokeColor=#FFFCFD;fontStyle=2" vertex="1" parent="HDdBaKYEOaWZxf6mFVSR-171">
          <mxGeometry x="140" width="80" height="30" as="geometry">
            <mxRectangle width="80" height="30" as="alternateBounds" />
          </mxGeometry>
        </mxCell>
        <mxCell id="HDdBaKYEOaWZxf6mFVSR-181" value="" style="edgeStyle=elbowEdgeStyle;elbow=horizontal;endArrow=none;html=1;curved=0;rounded=0;strokeColor=#808080;startArrow=none;startFill=0;endFill=0;exitX=0;exitY=0.5;exitDx=0;exitDy=0;entryX=1;entryY=0.5;entryDx=0;entryDy=0;" edge="1" parent="1" source="HDdBaKYEOaWZxf6mFVSR-85" target="HDdBaKYEOaWZxf6mFVSR-4">
          <mxGeometry width="50" height="50" relative="1" as="geometry">
            <mxPoint x="972" y="250" as="sourcePoint" />
            <mxPoint x="972" y="490" as="targetPoint" />
            <Array as="points">
              <mxPoint x="932" y="330" />
            </Array>
          </mxGeometry>
        </mxCell>
        <mxCell id="HDdBaKYEOaWZxf6mFVSR-183" value="" style="edgeStyle=elbowEdgeStyle;elbow=horizontal;endArrow=none;html=1;curved=0;rounded=0;strokeColor=#808080;startArrow=none;startFill=0;endFill=0;exitX=0;exitY=0.5;exitDx=0;exitDy=0;entryX=0;entryY=0.5;entryDx=0;entryDy=0;" edge="1" parent="1" source="HDdBaKYEOaWZxf6mFVSR-98" target="HDdBaKYEOaWZxf6mFVSR-103">
          <mxGeometry width="50" height="50" relative="1" as="geometry">
            <mxPoint x="672" y="255" as="sourcePoint" />
            <mxPoint x="672" y="495" as="targetPoint" />
            <Array as="points">
              <mxPoint x="962" y="400" />
            </Array>
          </mxGeometry>
        </mxCell>
        <mxCell id="HDdBaKYEOaWZxf6mFVSR-185" value="" style="edgeStyle=elbowEdgeStyle;elbow=horizontal;endArrow=none;html=1;curved=0;rounded=0;strokeColor=#808080;startArrow=none;startFill=0;endFill=0;exitX=1;exitY=0.5;exitDx=0;exitDy=0;entryX=0;entryY=0.5;entryDx=0;entryDy=0;" edge="1" parent="1" source="HDdBaKYEOaWZxf6mFVSR-103" target="HDdBaKYEOaWZxf6mFVSR-150">
          <mxGeometry width="50" height="50" relative="1" as="geometry">
            <mxPoint x="1012" y="285" as="sourcePoint" />
            <mxPoint x="892" y="405" as="targetPoint" />
            <Array as="points">
              <mxPoint x="1262" y="490" />
            </Array>
          </mxGeometry>
        </mxCell>
        <mxCell id="HDdBaKYEOaWZxf6mFVSR-186" value="" style="edgeStyle=elbowEdgeStyle;elbow=horizontal;endArrow=none;html=1;curved=0;rounded=0;strokeColor=#808080;startArrow=none;startFill=0;endFill=0;exitX=1;exitY=0.5;exitDx=0;exitDy=0;entryX=1;entryY=0.5;entryDx=0;entryDy=0;" edge="1" parent="1" source="HDdBaKYEOaWZxf6mFVSR-163" target="HDdBaKYEOaWZxf6mFVSR-154">
          <mxGeometry width="50" height="50" relative="1" as="geometry">
            <mxPoint x="1012" y="315" as="sourcePoint" />
            <mxPoint x="1572" y="540" as="targetPoint" />
            <Array as="points">
              <mxPoint x="1582" y="400" />
            </Array>
          </mxGeometry>
        </mxCell>
        <mxCell id="HDdBaKYEOaWZxf6mFVSR-187" value="" style="edgeStyle=elbowEdgeStyle;elbow=horizontal;endArrow=none;html=1;curved=0;rounded=0;strokeColor=#808080;startArrow=none;startFill=0;endFill=0;exitX=1;exitY=0.5;exitDx=0;exitDy=0;entryX=0;entryY=0.5;entryDx=0;entryDy=0;" edge="1" parent="1" source="HDdBaKYEOaWZxf6mFVSR-115" target="HDdBaKYEOaWZxf6mFVSR-137">
          <mxGeometry width="50" height="50" relative="1" as="geometry">
            <mxPoint x="1222" y="670" as="sourcePoint" />
            <mxPoint x="1312" y="700" as="targetPoint" />
            <Array as="points">
              <mxPoint x="1262" y="665" />
            </Array>
          </mxGeometry>
        </mxCell>
        <mxCell id="HDdBaKYEOaWZxf6mFVSR-188" value="" style="edgeStyle=elbowEdgeStyle;elbow=horizontal;endArrow=none;html=1;curved=0;rounded=0;strokeColor=#808080;startArrow=none;startFill=0;endFill=0;exitX=0;exitY=0.5;exitDx=0;exitDy=0;entryX=0;entryY=0.5;entryDx=0;entryDy=0;" edge="1" parent="1" source="HDdBaKYEOaWZxf6mFVSR-111" target="HDdBaKYEOaWZxf6mFVSR-120">
          <mxGeometry width="50" height="50" relative="1" as="geometry">
            <mxPoint x="1012" y="315" as="sourcePoint" />
            <mxPoint x="1012" y="505" as="targetPoint" />
            <Array as="points">
              <mxPoint x="962" y="630" />
            </Array>
          </mxGeometry>
        </mxCell>
        <mxCell id="HDdBaKYEOaWZxf6mFVSR-190" value="dim_restaurants" style="shape=table;startSize=30;container=1;collapsible=1;childLayout=tableLayout;fixedRows=1;rowLines=0;fontStyle=1;align=center;resizeLast=1;html=1;fillColor=#1ba1e2;strokeColor=#006EAF;fontColor=#ffffff;" vertex="1" parent="1">
          <mxGeometry x="362" y="370" width="220" height="150" as="geometry" />
        </mxCell>
        <mxCell id="HDdBaKYEOaWZxf6mFVSR-191" value="" style="shape=tableRow;horizontal=0;startSize=0;swimlaneHead=0;swimlaneBody=0;fillColor=none;collapsible=0;dropTarget=0;points=[[0,0.5],[1,0.5]];portConstraint=eastwest;top=0;left=0;right=0;bottom=1;" vertex="1" parent="HDdBaKYEOaWZxf6mFVSR-190">
          <mxGeometry y="30" width="220" height="30" as="geometry" />
        </mxCell>
        <mxCell id="HDdBaKYEOaWZxf6mFVSR-192" value="PK" style="shape=partialRectangle;connectable=0;top=0;left=0;bottom=0;right=0;fontStyle=1;overflow=hidden;whiteSpace=wrap;html=1;fontColor=#666666;" vertex="1" parent="HDdBaKYEOaWZxf6mFVSR-191">
          <mxGeometry width="30" height="30" as="geometry">
            <mxRectangle width="30" height="30" as="alternateBounds" />
          </mxGeometry>
        </mxCell>
        <mxCell id="HDdBaKYEOaWZxf6mFVSR-193" value="restaurant_id" style="shape=partialRectangle;connectable=0;top=0;left=0;bottom=0;right=0;align=left;spacingLeft=6;fontStyle=1;overflow=hidden;whiteSpace=wrap;html=1;fontColor=#666666;" vertex="1" parent="HDdBaKYEOaWZxf6mFVSR-191">
          <mxGeometry x="30" width="110" height="30" as="geometry">
            <mxRectangle width="110" height="30" as="alternateBounds" />
          </mxGeometry>
        </mxCell>
        <mxCell id="HDdBaKYEOaWZxf6mFVSR-194" value="varchar(6)" style="shape=partialRectangle;connectable=0;top=0;left=0;bottom=0;right=0;align=center;spacingLeft=0;fontStyle=2;overflow=hidden;whiteSpace=wrap;html=1;fontColor=#666666;strokeColor=#FFFCFD;" vertex="1" parent="HDdBaKYEOaWZxf6mFVSR-191">
          <mxGeometry x="140" width="80" height="30" as="geometry">
            <mxRectangle width="80" height="30" as="alternateBounds" />
          </mxGeometry>
        </mxCell>
        <mxCell id="HDdBaKYEOaWZxf6mFVSR-195" value="" style="shape=tableRow;horizontal=0;startSize=0;swimlaneHead=0;swimlaneBody=0;fillColor=none;collapsible=0;dropTarget=0;points=[[0,0.5],[1,0.5]];portConstraint=eastwest;top=0;left=0;right=0;bottom=0;" vertex="1" parent="HDdBaKYEOaWZxf6mFVSR-190">
          <mxGeometry y="60" width="220" height="30" as="geometry" />
        </mxCell>
        <mxCell id="HDdBaKYEOaWZxf6mFVSR-196" value="" style="shape=partialRectangle;connectable=0;top=0;left=0;bottom=0;right=0;editable=1;overflow=hidden;whiteSpace=wrap;html=1;fontColor=#666666;" vertex="1" parent="HDdBaKYEOaWZxf6mFVSR-195">
          <mxGeometry width="30" height="30" as="geometry">
            <mxRectangle width="30" height="30" as="alternateBounds" />
          </mxGeometry>
        </mxCell>
        <mxCell id="HDdBaKYEOaWZxf6mFVSR-197" value="restaurant_name" style="shape=partialRectangle;connectable=0;top=0;left=0;bottom=0;right=0;align=left;spacingLeft=6;overflow=hidden;whiteSpace=wrap;html=1;fontColor=#666666;" vertex="1" parent="HDdBaKYEOaWZxf6mFVSR-195">
          <mxGeometry x="30" width="110" height="30" as="geometry">
            <mxRectangle width="110" height="30" as="alternateBounds" />
          </mxGeometry>
        </mxCell>
        <mxCell id="HDdBaKYEOaWZxf6mFVSR-198" value="text" style="shape=partialRectangle;connectable=0;top=0;left=0;bottom=0;right=0;align=center;spacingLeft=0;overflow=hidden;whiteSpace=wrap;html=1;fontColor=#666666;strokeColor=#FFFCFD;fontStyle=2" vertex="1" parent="HDdBaKYEOaWZxf6mFVSR-195">
          <mxGeometry x="140" width="80" height="30" as="geometry">
            <mxRectangle width="80" height="30" as="alternateBounds" />
          </mxGeometry>
        </mxCell>
        <mxCell id="HDdBaKYEOaWZxf6mFVSR-199" style="shape=tableRow;horizontal=0;startSize=0;swimlaneHead=0;swimlaneBody=0;fillColor=none;collapsible=0;dropTarget=0;points=[[0,0.5],[1,0.5]];portConstraint=eastwest;top=0;left=0;right=0;bottom=0;" vertex="1" parent="HDdBaKYEOaWZxf6mFVSR-190">
          <mxGeometry y="90" width="220" height="30" as="geometry" />
        </mxCell>
        <mxCell id="HDdBaKYEOaWZxf6mFVSR-200" value="" style="shape=partialRectangle;connectable=0;top=0;left=0;bottom=0;right=0;editable=1;overflow=hidden;whiteSpace=wrap;html=1;fontColor=#666666;" vertex="1" parent="HDdBaKYEOaWZxf6mFVSR-199">
          <mxGeometry width="30" height="30" as="geometry">
            <mxRectangle width="30" height="30" as="alternateBounds" />
          </mxGeometry>
        </mxCell>
        <mxCell id="HDdBaKYEOaWZxf6mFVSR-201" value="address" style="shape=partialRectangle;connectable=0;top=0;left=0;bottom=0;right=0;align=left;spacingLeft=6;overflow=hidden;whiteSpace=wrap;html=1;fontColor=#666666;" vertex="1" parent="HDdBaKYEOaWZxf6mFVSR-199">
          <mxGeometry x="30" width="110" height="30" as="geometry">
            <mxRectangle width="110" height="30" as="alternateBounds" />
          </mxGeometry>
        </mxCell>
        <mxCell id="HDdBaKYEOaWZxf6mFVSR-202" value="varchar(100)" style="shape=partialRectangle;connectable=0;top=0;left=0;bottom=0;right=0;align=center;spacingLeft=0;overflow=hidden;whiteSpace=wrap;html=1;fontColor=#666666;strokeColor=#FFFCFD;fontStyle=2" vertex="1" parent="HDdBaKYEOaWZxf6mFVSR-199">
          <mxGeometry x="140" width="80" height="30" as="geometry">
            <mxRectangle width="80" height="30" as="alternateBounds" />
          </mxGeometry>
        </mxCell>
        <mxCell id="HDdBaKYEOaWZxf6mFVSR-203" style="shape=tableRow;horizontal=0;startSize=0;swimlaneHead=0;swimlaneBody=0;fillColor=none;collapsible=0;dropTarget=0;points=[[0,0.5],[1,0.5]];portConstraint=eastwest;top=0;left=0;right=0;bottom=0;" vertex="1" parent="HDdBaKYEOaWZxf6mFVSR-190">
          <mxGeometry y="120" width="220" height="30" as="geometry" />
        </mxCell>
        <mxCell id="HDdBaKYEOaWZxf6mFVSR-204" value="FK" style="shape=partialRectangle;connectable=0;top=0;left=0;bottom=0;right=0;editable=1;overflow=hidden;whiteSpace=wrap;html=1;fontColor=#666666;" vertex="1" parent="HDdBaKYEOaWZxf6mFVSR-203">
          <mxGeometry width="30" height="30" as="geometry">
            <mxRectangle width="30" height="30" as="alternateBounds" />
          </mxGeometry>
        </mxCell>
        <mxCell id="HDdBaKYEOaWZxf6mFVSR-205" value="postal_code" style="shape=partialRectangle;connectable=0;top=0;left=0;bottom=0;right=0;align=left;spacingLeft=6;overflow=hidden;whiteSpace=wrap;html=1;fontColor=#666666;" vertex="1" parent="HDdBaKYEOaWZxf6mFVSR-203">
          <mxGeometry x="30" width="110" height="30" as="geometry">
            <mxRectangle width="110" height="30" as="alternateBounds" />
          </mxGeometry>
        </mxCell>
        <mxCell id="HDdBaKYEOaWZxf6mFVSR-206" value="varchar(10)" style="shape=partialRectangle;connectable=0;top=0;left=0;bottom=0;right=0;align=center;spacingLeft=0;overflow=hidden;whiteSpace=wrap;html=1;fontColor=#666666;strokeColor=#FFFCFD;fontStyle=2" vertex="1" parent="HDdBaKYEOaWZxf6mFVSR-203">
          <mxGeometry x="140" width="80" height="30" as="geometry">
            <mxRectangle width="80" height="30" as="alternateBounds" />
          </mxGeometry>
        </mxCell>
        <mxCell id="HDdBaKYEOaWZxf6mFVSR-207" value="dim_postal_code" style="shape=table;startSize=30;container=1;collapsible=1;childLayout=tableLayout;fixedRows=1;rowLines=0;fontStyle=1;align=center;resizeLast=1;html=1;fillColor=#1ba1e2;strokeColor=#006EAF;fontColor=#ffffff;" vertex="1" parent="1">
          <mxGeometry x="362" y="560" width="220" height="90" as="geometry" />
        </mxCell>
        <mxCell id="HDdBaKYEOaWZxf6mFVSR-208" value="" style="shape=tableRow;horizontal=0;startSize=0;swimlaneHead=0;swimlaneBody=0;fillColor=none;collapsible=0;dropTarget=0;points=[[0,0.5],[1,0.5]];portConstraint=eastwest;top=0;left=0;right=0;bottom=1;" vertex="1" parent="HDdBaKYEOaWZxf6mFVSR-207">
          <mxGeometry y="30" width="220" height="30" as="geometry" />
        </mxCell>
        <mxCell id="HDdBaKYEOaWZxf6mFVSR-209" value="PK" style="shape=partialRectangle;connectable=0;top=0;left=0;bottom=0;right=0;fontStyle=1;overflow=hidden;whiteSpace=wrap;html=1;fontColor=#666666;" vertex="1" parent="HDdBaKYEOaWZxf6mFVSR-208">
          <mxGeometry width="30" height="30" as="geometry">
            <mxRectangle width="30" height="30" as="alternateBounds" />
          </mxGeometry>
        </mxCell>
        <mxCell id="HDdBaKYEOaWZxf6mFVSR-210" value="postal_code" style="shape=partialRectangle;connectable=0;top=0;left=0;bottom=0;right=0;align=left;spacingLeft=6;fontStyle=1;overflow=hidden;whiteSpace=wrap;html=1;fontColor=#666666;" vertex="1" parent="HDdBaKYEOaWZxf6mFVSR-208">
          <mxGeometry x="30" width="110" height="30" as="geometry">
            <mxRectangle width="110" height="30" as="alternateBounds" />
          </mxGeometry>
        </mxCell>
        <mxCell id="HDdBaKYEOaWZxf6mFVSR-211" value="varchar(10)" style="shape=partialRectangle;connectable=0;top=0;left=0;bottom=0;right=0;align=center;spacingLeft=0;fontStyle=2;overflow=hidden;whiteSpace=wrap;html=1;fontColor=#666666;strokeColor=#FFFCFD;" vertex="1" parent="HDdBaKYEOaWZxf6mFVSR-208">
          <mxGeometry x="140" width="80" height="30" as="geometry">
            <mxRectangle width="80" height="30" as="alternateBounds" />
          </mxGeometry>
        </mxCell>
        <mxCell id="HDdBaKYEOaWZxf6mFVSR-212" value="" style="shape=tableRow;horizontal=0;startSize=0;swimlaneHead=0;swimlaneBody=0;fillColor=none;collapsible=0;dropTarget=0;points=[[0,0.5],[1,0.5]];portConstraint=eastwest;top=0;left=0;right=0;bottom=0;" vertex="1" parent="HDdBaKYEOaWZxf6mFVSR-207">
          <mxGeometry y="60" width="220" height="30" as="geometry" />
        </mxCell>
        <mxCell id="HDdBaKYEOaWZxf6mFVSR-213" value="FK" style="shape=partialRectangle;connectable=0;top=0;left=0;bottom=0;right=0;editable=1;overflow=hidden;whiteSpace=wrap;html=1;fontColor=#666666;" vertex="1" parent="HDdBaKYEOaWZxf6mFVSR-212">
          <mxGeometry width="30" height="30" as="geometry">
            <mxRectangle width="30" height="30" as="alternateBounds" />
          </mxGeometry>
        </mxCell>
        <mxCell id="HDdBaKYEOaWZxf6mFVSR-214" value="city_id" style="shape=partialRectangle;connectable=0;top=0;left=0;bottom=0;right=0;align=left;spacingLeft=6;overflow=hidden;whiteSpace=wrap;html=1;fontColor=#666666;" vertex="1" parent="HDdBaKYEOaWZxf6mFVSR-212">
          <mxGeometry x="30" width="110" height="30" as="geometry">
            <mxRectangle width="110" height="30" as="alternateBounds" />
          </mxGeometry>
        </mxCell>
        <mxCell id="HDdBaKYEOaWZxf6mFVSR-215" value="int" style="shape=partialRectangle;connectable=0;top=0;left=0;bottom=0;right=0;align=center;spacingLeft=0;overflow=hidden;whiteSpace=wrap;html=1;fontColor=#666666;strokeColor=#FFFCFD;fontStyle=2" vertex="1" parent="HDdBaKYEOaWZxf6mFVSR-212">
          <mxGeometry x="140" width="80" height="30" as="geometry">
            <mxRectangle width="80" height="30" as="alternateBounds" />
          </mxGeometry>
        </mxCell>
        <mxCell id="HDdBaKYEOaWZxf6mFVSR-216" value="dim_cities" style="shape=table;startSize=30;container=1;collapsible=1;childLayout=tableLayout;fixedRows=1;rowLines=0;fontStyle=1;align=center;resizeLast=1;html=1;fillColor=#1ba1e2;strokeColor=#006EAF;fontColor=#ffffff;" vertex="1" parent="1">
          <mxGeometry x="362" y="700" width="220" height="90" as="geometry" />
        </mxCell>
        <mxCell id="HDdBaKYEOaWZxf6mFVSR-217" value="" style="shape=tableRow;horizontal=0;startSize=0;swimlaneHead=0;swimlaneBody=0;fillColor=none;collapsible=0;dropTarget=0;points=[[0,0.5],[1,0.5]];portConstraint=eastwest;top=0;left=0;right=0;bottom=1;" vertex="1" parent="HDdBaKYEOaWZxf6mFVSR-216">
          <mxGeometry y="30" width="220" height="30" as="geometry" />
        </mxCell>
        <mxCell id="HDdBaKYEOaWZxf6mFVSR-218" value="PK" style="shape=partialRectangle;connectable=0;top=0;left=0;bottom=0;right=0;fontStyle=1;overflow=hidden;whiteSpace=wrap;html=1;fontColor=#666666;" vertex="1" parent="HDdBaKYEOaWZxf6mFVSR-217">
          <mxGeometry width="30" height="30" as="geometry">
            <mxRectangle width="30" height="30" as="alternateBounds" />
          </mxGeometry>
        </mxCell>
        <mxCell id="HDdBaKYEOaWZxf6mFVSR-219" value="city_id" style="shape=partialRectangle;connectable=0;top=0;left=0;bottom=0;right=0;align=left;spacingLeft=6;fontStyle=1;overflow=hidden;whiteSpace=wrap;html=1;fontColor=#666666;" vertex="1" parent="HDdBaKYEOaWZxf6mFVSR-217">
          <mxGeometry x="30" width="110" height="30" as="geometry">
            <mxRectangle width="110" height="30" as="alternateBounds" />
          </mxGeometry>
        </mxCell>
        <mxCell id="HDdBaKYEOaWZxf6mFVSR-220" value="int" style="shape=partialRectangle;connectable=0;top=0;left=0;bottom=0;right=0;align=center;spacingLeft=0;fontStyle=2;overflow=hidden;whiteSpace=wrap;html=1;fontColor=#666666;strokeColor=#FFFCFD;" vertex="1" parent="HDdBaKYEOaWZxf6mFVSR-217">
          <mxGeometry x="140" width="80" height="30" as="geometry">
            <mxRectangle width="80" height="30" as="alternateBounds" />
          </mxGeometry>
        </mxCell>
        <mxCell id="HDdBaKYEOaWZxf6mFVSR-221" value="" style="shape=tableRow;horizontal=0;startSize=0;swimlaneHead=0;swimlaneBody=0;fillColor=none;collapsible=0;dropTarget=0;points=[[0,0.5],[1,0.5]];portConstraint=eastwest;top=0;left=0;right=0;bottom=0;" vertex="1" parent="HDdBaKYEOaWZxf6mFVSR-216">
          <mxGeometry y="60" width="220" height="30" as="geometry" />
        </mxCell>
        <mxCell id="HDdBaKYEOaWZxf6mFVSR-222" value="" style="shape=partialRectangle;connectable=0;top=0;left=0;bottom=0;right=0;editable=1;overflow=hidden;whiteSpace=wrap;html=1;fontColor=#666666;" vertex="1" parent="HDdBaKYEOaWZxf6mFVSR-221">
          <mxGeometry width="30" height="30" as="geometry">
            <mxRectangle width="30" height="30" as="alternateBounds" />
          </mxGeometry>
        </mxCell>
        <mxCell id="HDdBaKYEOaWZxf6mFVSR-223" value="city" style="shape=partialRectangle;connectable=0;top=0;left=0;bottom=0;right=0;align=left;spacingLeft=6;overflow=hidden;whiteSpace=wrap;html=1;fontColor=#666666;" vertex="1" parent="HDdBaKYEOaWZxf6mFVSR-221">
          <mxGeometry x="30" width="110" height="30" as="geometry">
            <mxRectangle width="110" height="30" as="alternateBounds" />
          </mxGeometry>
        </mxCell>
        <mxCell id="HDdBaKYEOaWZxf6mFVSR-224" value="text" style="shape=partialRectangle;connectable=0;top=0;left=0;bottom=0;right=0;align=center;spacingLeft=0;overflow=hidden;whiteSpace=wrap;html=1;fontColor=#666666;strokeColor=#FFFCFD;fontStyle=2" vertex="1" parent="HDdBaKYEOaWZxf6mFVSR-221">
          <mxGeometry x="140" width="80" height="30" as="geometry">
            <mxRectangle width="80" height="30" as="alternateBounds" />
          </mxGeometry>
        </mxCell>
        <mxCell id="HDdBaKYEOaWZxf6mFVSR-225" value="dim_employees" style="shape=table;startSize=30;container=1;collapsible=1;childLayout=tableLayout;fixedRows=1;rowLines=0;fontStyle=1;align=center;resizeLast=1;html=1;fillColor=#1ba1e2;strokeColor=#006EAF;fontColor=#ffffff;" vertex="1" parent="1">
          <mxGeometry x="72" y="230" width="220" height="450" as="geometry" />
        </mxCell>
        <mxCell id="HDdBaKYEOaWZxf6mFVSR-226" value="" style="shape=tableRow;horizontal=0;startSize=0;swimlaneHead=0;swimlaneBody=0;fillColor=none;collapsible=0;dropTarget=0;points=[[0,0.5],[1,0.5]];portConstraint=eastwest;top=0;left=0;right=0;bottom=1;" vertex="1" parent="HDdBaKYEOaWZxf6mFVSR-225">
          <mxGeometry y="30" width="220" height="30" as="geometry" />
        </mxCell>
        <mxCell id="HDdBaKYEOaWZxf6mFVSR-227" value="PK" style="shape=partialRectangle;connectable=0;top=0;left=0;bottom=0;right=0;fontStyle=1;overflow=hidden;whiteSpace=wrap;html=1;fontColor=#666666;" vertex="1" parent="HDdBaKYEOaWZxf6mFVSR-226">
          <mxGeometry width="30" height="30" as="geometry">
            <mxRectangle width="30" height="30" as="alternateBounds" />
          </mxGeometry>
        </mxCell>
        <mxCell id="HDdBaKYEOaWZxf6mFVSR-228" value="employee_id" style="shape=partialRectangle;connectable=0;top=0;left=0;bottom=0;right=0;align=left;spacingLeft=6;fontStyle=1;overflow=hidden;whiteSpace=wrap;html=1;fontColor=#666666;" vertex="1" parent="HDdBaKYEOaWZxf6mFVSR-226">
          <mxGeometry x="30" width="110" height="30" as="geometry">
            <mxRectangle width="110" height="30" as="alternateBounds" />
          </mxGeometry>
        </mxCell>
        <mxCell id="HDdBaKYEOaWZxf6mFVSR-229" value="varchar(4)" style="shape=partialRectangle;connectable=0;top=0;left=0;bottom=0;right=0;align=center;spacingLeft=0;fontStyle=2;overflow=hidden;whiteSpace=wrap;html=1;fontColor=#666666;strokeColor=#FFFCFD;" vertex="1" parent="HDdBaKYEOaWZxf6mFVSR-226">
          <mxGeometry x="140" width="80" height="30" as="geometry">
            <mxRectangle width="80" height="30" as="alternateBounds" />
          </mxGeometry>
        </mxCell>
        <mxCell id="HDdBaKYEOaWZxf6mFVSR-230" value="" style="shape=tableRow;horizontal=0;startSize=0;swimlaneHead=0;swimlaneBody=0;fillColor=none;collapsible=0;dropTarget=0;points=[[0,0.5],[1,0.5]];portConstraint=eastwest;top=0;left=0;right=0;bottom=0;" vertex="1" parent="HDdBaKYEOaWZxf6mFVSR-225">
          <mxGeometry y="60" width="220" height="30" as="geometry" />
        </mxCell>
        <mxCell id="HDdBaKYEOaWZxf6mFVSR-231" value="" style="shape=partialRectangle;connectable=0;top=0;left=0;bottom=0;right=0;editable=1;overflow=hidden;whiteSpace=wrap;html=1;fontColor=#666666;" vertex="1" parent="HDdBaKYEOaWZxf6mFVSR-230">
          <mxGeometry width="30" height="30" as="geometry">
            <mxRectangle width="30" height="30" as="alternateBounds" />
          </mxGeometry>
        </mxCell>
        <mxCell id="HDdBaKYEOaWZxf6mFVSR-232" value="first_name" style="shape=partialRectangle;connectable=0;top=0;left=0;bottom=0;right=0;align=left;spacingLeft=6;overflow=hidden;whiteSpace=wrap;html=1;fontColor=#666666;" vertex="1" parent="HDdBaKYEOaWZxf6mFVSR-230">
          <mxGeometry x="30" width="110" height="30" as="geometry">
            <mxRectangle width="110" height="30" as="alternateBounds" />
          </mxGeometry>
        </mxCell>
        <mxCell id="HDdBaKYEOaWZxf6mFVSR-233" value="varchar(50)" style="shape=partialRectangle;connectable=0;top=0;left=0;bottom=0;right=0;align=center;spacingLeft=0;overflow=hidden;whiteSpace=wrap;html=1;fontColor=#666666;strokeColor=#FFFCFD;fontStyle=2" vertex="1" parent="HDdBaKYEOaWZxf6mFVSR-230">
          <mxGeometry x="140" width="80" height="30" as="geometry">
            <mxRectangle width="80" height="30" as="alternateBounds" />
          </mxGeometry>
        </mxCell>
        <mxCell id="HDdBaKYEOaWZxf6mFVSR-234" style="shape=tableRow;horizontal=0;startSize=0;swimlaneHead=0;swimlaneBody=0;fillColor=none;collapsible=0;dropTarget=0;points=[[0,0.5],[1,0.5]];portConstraint=eastwest;top=0;left=0;right=0;bottom=0;" vertex="1" parent="HDdBaKYEOaWZxf6mFVSR-225">
          <mxGeometry y="90" width="220" height="30" as="geometry" />
        </mxCell>
        <mxCell id="HDdBaKYEOaWZxf6mFVSR-235" value="" style="shape=partialRectangle;connectable=0;top=0;left=0;bottom=0;right=0;editable=1;overflow=hidden;whiteSpace=wrap;html=1;fontColor=#666666;" vertex="1" parent="HDdBaKYEOaWZxf6mFVSR-234">
          <mxGeometry width="30" height="30" as="geometry">
            <mxRectangle width="30" height="30" as="alternateBounds" />
          </mxGeometry>
        </mxCell>
        <mxCell id="HDdBaKYEOaWZxf6mFVSR-236" value="last_name" style="shape=partialRectangle;connectable=0;top=0;left=0;bottom=0;right=0;align=left;spacingLeft=6;overflow=hidden;whiteSpace=wrap;html=1;fontColor=#666666;" vertex="1" parent="HDdBaKYEOaWZxf6mFVSR-234">
          <mxGeometry x="30" width="110" height="30" as="geometry">
            <mxRectangle width="110" height="30" as="alternateBounds" />
          </mxGeometry>
        </mxCell>
        <mxCell id="HDdBaKYEOaWZxf6mFVSR-237" value="varchar(50)" style="shape=partialRectangle;connectable=0;top=0;left=0;bottom=0;right=0;align=center;spacingLeft=0;overflow=hidden;whiteSpace=wrap;html=1;fontColor=#666666;strokeColor=#FFFCFD;fontStyle=2" vertex="1" parent="HDdBaKYEOaWZxf6mFVSR-234">
          <mxGeometry x="140" width="80" height="30" as="geometry">
            <mxRectangle width="80" height="30" as="alternateBounds" />
          </mxGeometry>
        </mxCell>
        <mxCell id="HDdBaKYEOaWZxf6mFVSR-321" style="shape=tableRow;horizontal=0;startSize=0;swimlaneHead=0;swimlaneBody=0;fillColor=none;collapsible=0;dropTarget=0;points=[[0,0.5],[1,0.5]];portConstraint=eastwest;top=0;left=0;right=0;bottom=0;" vertex="1" parent="HDdBaKYEOaWZxf6mFVSR-225">
          <mxGeometry y="120" width="220" height="30" as="geometry" />
        </mxCell>
        <mxCell id="HDdBaKYEOaWZxf6mFVSR-322" value="FK" style="shape=partialRectangle;connectable=0;top=0;left=0;bottom=0;right=0;editable=1;overflow=hidden;whiteSpace=wrap;html=1;fontColor=#666666;" vertex="1" parent="HDdBaKYEOaWZxf6mFVSR-321">
          <mxGeometry width="30" height="30" as="geometry">
            <mxRectangle width="30" height="30" as="alternateBounds" />
          </mxGeometry>
        </mxCell>
        <mxCell id="HDdBaKYEOaWZxf6mFVSR-323" value="title_id" style="shape=partialRectangle;connectable=0;top=0;left=0;bottom=0;right=0;align=left;spacingLeft=6;overflow=hidden;whiteSpace=wrap;html=1;fontColor=#666666;" vertex="1" parent="HDdBaKYEOaWZxf6mFVSR-321">
          <mxGeometry x="30" width="110" height="30" as="geometry">
            <mxRectangle width="110" height="30" as="alternateBounds" />
          </mxGeometry>
        </mxCell>
        <mxCell id="HDdBaKYEOaWZxf6mFVSR-324" value="int" style="shape=partialRectangle;connectable=0;top=0;left=0;bottom=0;right=0;align=center;spacingLeft=0;overflow=hidden;whiteSpace=wrap;html=1;fontColor=#666666;strokeColor=#FFFCFD;fontStyle=2" vertex="1" parent="HDdBaKYEOaWZxf6mFVSR-321">
          <mxGeometry x="140" width="80" height="30" as="geometry">
            <mxRectangle width="80" height="30" as="alternateBounds" />
          </mxGeometry>
        </mxCell>
        <mxCell id="HDdBaKYEOaWZxf6mFVSR-238" style="shape=tableRow;horizontal=0;startSize=0;swimlaneHead=0;swimlaneBody=0;fillColor=none;collapsible=0;dropTarget=0;points=[[0,0.5],[1,0.5]];portConstraint=eastwest;top=0;left=0;right=0;bottom=0;" vertex="1" parent="HDdBaKYEOaWZxf6mFVSR-225">
          <mxGeometry y="150" width="220" height="30" as="geometry" />
        </mxCell>
        <mxCell id="HDdBaKYEOaWZxf6mFVSR-239" value="" style="shape=partialRectangle;connectable=0;top=0;left=0;bottom=0;right=0;editable=1;overflow=hidden;whiteSpace=wrap;html=1;fontColor=#666666;" vertex="1" parent="HDdBaKYEOaWZxf6mFVSR-238">
          <mxGeometry width="30" height="30" as="geometry">
            <mxRectangle width="30" height="30" as="alternateBounds" />
          </mxGeometry>
        </mxCell>
        <mxCell id="HDdBaKYEOaWZxf6mFVSR-240" value="email" style="shape=partialRectangle;connectable=0;top=0;left=0;bottom=0;right=0;align=left;spacingLeft=6;overflow=hidden;whiteSpace=wrap;html=1;fontColor=#666666;" vertex="1" parent="HDdBaKYEOaWZxf6mFVSR-238">
          <mxGeometry x="30" width="110" height="30" as="geometry">
            <mxRectangle width="110" height="30" as="alternateBounds" />
          </mxGeometry>
        </mxCell>
        <mxCell id="HDdBaKYEOaWZxf6mFVSR-241" value="varchar(50)" style="shape=partialRectangle;connectable=0;top=0;left=0;bottom=0;right=0;align=center;spacingLeft=0;overflow=hidden;whiteSpace=wrap;html=1;fontColor=#666666;strokeColor=#FFFCFD;fontStyle=2" vertex="1" parent="HDdBaKYEOaWZxf6mFVSR-238">
          <mxGeometry x="140" width="80" height="30" as="geometry">
            <mxRectangle width="80" height="30" as="alternateBounds" />
          </mxGeometry>
        </mxCell>
        <mxCell id="HDdBaKYEOaWZxf6mFVSR-278" style="shape=tableRow;horizontal=0;startSize=0;swimlaneHead=0;swimlaneBody=0;fillColor=none;collapsible=0;dropTarget=0;points=[[0,0.5],[1,0.5]];portConstraint=eastwest;top=0;left=0;right=0;bottom=0;" vertex="1" parent="HDdBaKYEOaWZxf6mFVSR-225">
          <mxGeometry y="180" width="220" height="30" as="geometry" />
        </mxCell>
        <mxCell id="HDdBaKYEOaWZxf6mFVSR-279" style="shape=partialRectangle;connectable=0;top=0;left=0;bottom=0;right=0;editable=1;overflow=hidden;whiteSpace=wrap;html=1;fontColor=#666666;" vertex="1" parent="HDdBaKYEOaWZxf6mFVSR-278">
          <mxGeometry width="30" height="30" as="geometry">
            <mxRectangle width="30" height="30" as="alternateBounds" />
          </mxGeometry>
        </mxCell>
        <mxCell id="HDdBaKYEOaWZxf6mFVSR-280" value="phone_number" style="shape=partialRectangle;connectable=0;top=0;left=0;bottom=0;right=0;align=left;spacingLeft=6;overflow=hidden;whiteSpace=wrap;html=1;fontColor=#666666;" vertex="1" parent="HDdBaKYEOaWZxf6mFVSR-278">
          <mxGeometry x="30" width="110" height="30" as="geometry">
            <mxRectangle width="110" height="30" as="alternateBounds" />
          </mxGeometry>
        </mxCell>
        <mxCell id="HDdBaKYEOaWZxf6mFVSR-281" value="varchar(15)" style="shape=partialRectangle;connectable=0;top=0;left=0;bottom=0;right=0;align=center;spacingLeft=0;overflow=hidden;whiteSpace=wrap;html=1;fontColor=#666666;strokeColor=#FFFCFD;fontStyle=2" vertex="1" parent="HDdBaKYEOaWZxf6mFVSR-278">
          <mxGeometry x="140" width="80" height="30" as="geometry">
            <mxRectangle width="80" height="30" as="alternateBounds" />
          </mxGeometry>
        </mxCell>
        <mxCell id="HDdBaKYEOaWZxf6mFVSR-317" style="shape=tableRow;horizontal=0;startSize=0;swimlaneHead=0;swimlaneBody=0;fillColor=none;collapsible=0;dropTarget=0;points=[[0,0.5],[1,0.5]];portConstraint=eastwest;top=0;left=0;right=0;bottom=0;" vertex="1" parent="HDdBaKYEOaWZxf6mFVSR-225">
          <mxGeometry y="210" width="220" height="30" as="geometry" />
        </mxCell>
        <mxCell id="HDdBaKYEOaWZxf6mFVSR-318" value="FK" style="shape=partialRectangle;connectable=0;top=0;left=0;bottom=0;right=0;editable=1;overflow=hidden;whiteSpace=wrap;html=1;fontColor=#666666;" vertex="1" parent="HDdBaKYEOaWZxf6mFVSR-317">
          <mxGeometry width="30" height="30" as="geometry">
            <mxRectangle width="30" height="30" as="alternateBounds" />
          </mxGeometry>
        </mxCell>
        <mxCell id="HDdBaKYEOaWZxf6mFVSR-319" value="restaurant_id" style="shape=partialRectangle;connectable=0;top=0;left=0;bottom=0;right=0;align=left;spacingLeft=6;overflow=hidden;whiteSpace=wrap;html=1;fontColor=#666666;" vertex="1" parent="HDdBaKYEOaWZxf6mFVSR-317">
          <mxGeometry x="30" width="110" height="30" as="geometry">
            <mxRectangle width="110" height="30" as="alternateBounds" />
          </mxGeometry>
        </mxCell>
        <mxCell id="HDdBaKYEOaWZxf6mFVSR-320" value="varchar(6)" style="shape=partialRectangle;connectable=0;top=0;left=0;bottom=0;right=0;align=center;spacingLeft=0;overflow=hidden;whiteSpace=wrap;html=1;fontColor=#666666;strokeColor=#FFFCFD;fontStyle=2" vertex="1" parent="HDdBaKYEOaWZxf6mFVSR-317">
          <mxGeometry x="140" width="80" height="30" as="geometry">
            <mxRectangle width="80" height="30" as="alternateBounds" />
          </mxGeometry>
        </mxCell>
        <mxCell id="HDdBaKYEOaWZxf6mFVSR-325" style="shape=tableRow;horizontal=0;startSize=0;swimlaneHead=0;swimlaneBody=0;fillColor=none;collapsible=0;dropTarget=0;points=[[0,0.5],[1,0.5]];portConstraint=eastwest;top=0;left=0;right=0;bottom=0;" vertex="1" parent="HDdBaKYEOaWZxf6mFVSR-225">
          <mxGeometry y="240" width="220" height="30" as="geometry" />
        </mxCell>
        <mxCell id="HDdBaKYEOaWZxf6mFVSR-326" style="shape=partialRectangle;connectable=0;top=0;left=0;bottom=0;right=0;editable=1;overflow=hidden;whiteSpace=wrap;html=1;fontColor=#666666;" vertex="1" parent="HDdBaKYEOaWZxf6mFVSR-325">
          <mxGeometry width="30" height="30" as="geometry">
            <mxRectangle width="30" height="30" as="alternateBounds" />
          </mxGeometry>
        </mxCell>
        <mxCell id="HDdBaKYEOaWZxf6mFVSR-327" value="address" style="shape=partialRectangle;connectable=0;top=0;left=0;bottom=0;right=0;align=left;spacingLeft=6;overflow=hidden;whiteSpace=wrap;html=1;fontColor=#666666;" vertex="1" parent="HDdBaKYEOaWZxf6mFVSR-325">
          <mxGeometry x="30" width="110" height="30" as="geometry">
            <mxRectangle width="110" height="30" as="alternateBounds" />
          </mxGeometry>
        </mxCell>
        <mxCell id="HDdBaKYEOaWZxf6mFVSR-328" value="varchar(100)" style="shape=partialRectangle;connectable=0;top=0;left=0;bottom=0;right=0;align=center;spacingLeft=0;overflow=hidden;whiteSpace=wrap;html=1;fontColor=#666666;strokeColor=#FFFCFD;fontStyle=2" vertex="1" parent="HDdBaKYEOaWZxf6mFVSR-325">
          <mxGeometry x="140" width="80" height="30" as="geometry">
            <mxRectangle width="80" height="30" as="alternateBounds" />
          </mxGeometry>
        </mxCell>
        <mxCell id="HDdBaKYEOaWZxf6mFVSR-270" style="shape=tableRow;horizontal=0;startSize=0;swimlaneHead=0;swimlaneBody=0;fillColor=none;collapsible=0;dropTarget=0;points=[[0,0.5],[1,0.5]];portConstraint=eastwest;top=0;left=0;right=0;bottom=0;" vertex="1" parent="HDdBaKYEOaWZxf6mFVSR-225">
          <mxGeometry y="270" width="220" height="30" as="geometry" />
        </mxCell>
        <mxCell id="HDdBaKYEOaWZxf6mFVSR-271" value="FK" style="shape=partialRectangle;connectable=0;top=0;left=0;bottom=0;right=0;editable=1;overflow=hidden;whiteSpace=wrap;html=1;fontColor=#666666;" vertex="1" parent="HDdBaKYEOaWZxf6mFVSR-270">
          <mxGeometry width="30" height="30" as="geometry">
            <mxRectangle width="30" height="30" as="alternateBounds" />
          </mxGeometry>
        </mxCell>
        <mxCell id="HDdBaKYEOaWZxf6mFVSR-272" value="postal_code" style="shape=partialRectangle;connectable=0;top=0;left=0;bottom=0;right=0;align=left;spacingLeft=6;overflow=hidden;whiteSpace=wrap;html=1;fontColor=#666666;" vertex="1" parent="HDdBaKYEOaWZxf6mFVSR-270">
          <mxGeometry x="30" width="110" height="30" as="geometry">
            <mxRectangle width="110" height="30" as="alternateBounds" />
          </mxGeometry>
        </mxCell>
        <mxCell id="HDdBaKYEOaWZxf6mFVSR-273" value="varchar(10)" style="shape=partialRectangle;connectable=0;top=0;left=0;bottom=0;right=0;align=center;spacingLeft=0;overflow=hidden;whiteSpace=wrap;html=1;fontColor=#666666;strokeColor=#FFFCFD;fontStyle=2" vertex="1" parent="HDdBaKYEOaWZxf6mFVSR-270">
          <mxGeometry x="140" width="80" height="30" as="geometry">
            <mxRectangle width="80" height="30" as="alternateBounds" />
          </mxGeometry>
        </mxCell>
        <mxCell id="HDdBaKYEOaWZxf6mFVSR-258" style="shape=tableRow;horizontal=0;startSize=0;swimlaneHead=0;swimlaneBody=0;fillColor=none;collapsible=0;dropTarget=0;points=[[0,0.5],[1,0.5]];portConstraint=eastwest;top=0;left=0;right=0;bottom=0;" vertex="1" parent="HDdBaKYEOaWZxf6mFVSR-225">
          <mxGeometry y="300" width="220" height="30" as="geometry" />
        </mxCell>
        <mxCell id="HDdBaKYEOaWZxf6mFVSR-259" style="shape=partialRectangle;connectable=0;top=0;left=0;bottom=0;right=0;editable=1;overflow=hidden;whiteSpace=wrap;html=1;fontColor=#666666;" vertex="1" parent="HDdBaKYEOaWZxf6mFVSR-258">
          <mxGeometry width="30" height="30" as="geometry">
            <mxRectangle width="30" height="30" as="alternateBounds" />
          </mxGeometry>
        </mxCell>
        <mxCell id="HDdBaKYEOaWZxf6mFVSR-260" value="experience_years" style="shape=partialRectangle;connectable=0;top=0;left=0;bottom=0;right=0;align=left;spacingLeft=6;overflow=hidden;whiteSpace=wrap;html=1;fontColor=#666666;" vertex="1" parent="HDdBaKYEOaWZxf6mFVSR-258">
          <mxGeometry x="30" width="110" height="30" as="geometry">
            <mxRectangle width="110" height="30" as="alternateBounds" />
          </mxGeometry>
        </mxCell>
        <mxCell id="HDdBaKYEOaWZxf6mFVSR-261" value="int" style="shape=partialRectangle;connectable=0;top=0;left=0;bottom=0;right=0;align=center;spacingLeft=0;overflow=hidden;whiteSpace=wrap;html=1;fontColor=#666666;strokeColor=#FFFCFD;fontStyle=2" vertex="1" parent="HDdBaKYEOaWZxf6mFVSR-258">
          <mxGeometry x="140" width="80" height="30" as="geometry">
            <mxRectangle width="80" height="30" as="alternateBounds" />
          </mxGeometry>
        </mxCell>
        <mxCell id="HDdBaKYEOaWZxf6mFVSR-254" style="shape=tableRow;horizontal=0;startSize=0;swimlaneHead=0;swimlaneBody=0;fillColor=none;collapsible=0;dropTarget=0;points=[[0,0.5],[1,0.5]];portConstraint=eastwest;top=0;left=0;right=0;bottom=0;" vertex="1" parent="HDdBaKYEOaWZxf6mFVSR-225">
          <mxGeometry y="330" width="220" height="30" as="geometry" />
        </mxCell>
        <mxCell id="HDdBaKYEOaWZxf6mFVSR-255" value="FK" style="shape=partialRectangle;connectable=0;top=0;left=0;bottom=0;right=0;editable=1;overflow=hidden;whiteSpace=wrap;html=1;fontColor=#666666;" vertex="1" parent="HDdBaKYEOaWZxf6mFVSR-254">
          <mxGeometry width="30" height="30" as="geometry">
            <mxRectangle width="30" height="30" as="alternateBounds" />
          </mxGeometry>
        </mxCell>
        <mxCell id="HDdBaKYEOaWZxf6mFVSR-256" value="salary_id" style="shape=partialRectangle;connectable=0;top=0;left=0;bottom=0;right=0;align=left;spacingLeft=6;overflow=hidden;whiteSpace=wrap;html=1;fontColor=#666666;" vertex="1" parent="HDdBaKYEOaWZxf6mFVSR-254">
          <mxGeometry x="30" width="110" height="30" as="geometry">
            <mxRectangle width="110" height="30" as="alternateBounds" />
          </mxGeometry>
        </mxCell>
        <mxCell id="HDdBaKYEOaWZxf6mFVSR-257" value="int" style="shape=partialRectangle;connectable=0;top=0;left=0;bottom=0;right=0;align=center;spacingLeft=0;overflow=hidden;whiteSpace=wrap;html=1;fontColor=#666666;strokeColor=#FFFCFD;fontStyle=2" vertex="1" parent="HDdBaKYEOaWZxf6mFVSR-254">
          <mxGeometry x="140" width="80" height="30" as="geometry">
            <mxRectangle width="80" height="30" as="alternateBounds" />
          </mxGeometry>
        </mxCell>
        <mxCell id="HDdBaKYEOaWZxf6mFVSR-250" style="shape=tableRow;horizontal=0;startSize=0;swimlaneHead=0;swimlaneBody=0;fillColor=none;collapsible=0;dropTarget=0;points=[[0,0.5],[1,0.5]];portConstraint=eastwest;top=0;left=0;right=0;bottom=0;" vertex="1" parent="HDdBaKYEOaWZxf6mFVSR-225">
          <mxGeometry y="360" width="220" height="30" as="geometry" />
        </mxCell>
        <mxCell id="HDdBaKYEOaWZxf6mFVSR-251" style="shape=partialRectangle;connectable=0;top=0;left=0;bottom=0;right=0;editable=1;overflow=hidden;whiteSpace=wrap;html=1;fontColor=#666666;" vertex="1" parent="HDdBaKYEOaWZxf6mFVSR-250">
          <mxGeometry width="30" height="30" as="geometry">
            <mxRectangle width="30" height="30" as="alternateBounds" />
          </mxGeometry>
        </mxCell>
        <mxCell id="HDdBaKYEOaWZxf6mFVSR-252" style="shape=partialRectangle;connectable=0;top=0;left=0;bottom=0;right=0;align=left;spacingLeft=6;overflow=hidden;whiteSpace=wrap;html=1;fontColor=#666666;" vertex="1" parent="HDdBaKYEOaWZxf6mFVSR-250">
          <mxGeometry x="30" width="110" height="30" as="geometry">
            <mxRectangle width="110" height="30" as="alternateBounds" />
          </mxGeometry>
        </mxCell>
        <mxCell id="HDdBaKYEOaWZxf6mFVSR-253" style="shape=partialRectangle;connectable=0;top=0;left=0;bottom=0;right=0;align=center;spacingLeft=0;overflow=hidden;whiteSpace=wrap;html=1;fontColor=#666666;strokeColor=#FFFCFD;fontStyle=2" vertex="1" parent="HDdBaKYEOaWZxf6mFVSR-250">
          <mxGeometry x="140" width="80" height="30" as="geometry">
            <mxRectangle width="80" height="30" as="alternateBounds" />
          </mxGeometry>
        </mxCell>
        <mxCell id="HDdBaKYEOaWZxf6mFVSR-246" style="shape=tableRow;horizontal=0;startSize=0;swimlaneHead=0;swimlaneBody=0;fillColor=none;collapsible=0;dropTarget=0;points=[[0,0.5],[1,0.5]];portConstraint=eastwest;top=0;left=0;right=0;bottom=0;" vertex="1" parent="HDdBaKYEOaWZxf6mFVSR-225">
          <mxGeometry y="390" width="220" height="30" as="geometry" />
        </mxCell>
        <mxCell id="HDdBaKYEOaWZxf6mFVSR-247" style="shape=partialRectangle;connectable=0;top=0;left=0;bottom=0;right=0;editable=1;overflow=hidden;whiteSpace=wrap;html=1;fontColor=#666666;" vertex="1" parent="HDdBaKYEOaWZxf6mFVSR-246">
          <mxGeometry width="30" height="30" as="geometry">
            <mxRectangle width="30" height="30" as="alternateBounds" />
          </mxGeometry>
        </mxCell>
        <mxCell id="HDdBaKYEOaWZxf6mFVSR-248" style="shape=partialRectangle;connectable=0;top=0;left=0;bottom=0;right=0;align=left;spacingLeft=6;overflow=hidden;whiteSpace=wrap;html=1;fontColor=#666666;" vertex="1" parent="HDdBaKYEOaWZxf6mFVSR-246">
          <mxGeometry x="30" width="110" height="30" as="geometry">
            <mxRectangle width="110" height="30" as="alternateBounds" />
          </mxGeometry>
        </mxCell>
        <mxCell id="HDdBaKYEOaWZxf6mFVSR-249" style="shape=partialRectangle;connectable=0;top=0;left=0;bottom=0;right=0;align=center;spacingLeft=0;overflow=hidden;whiteSpace=wrap;html=1;fontColor=#666666;strokeColor=#FFFCFD;fontStyle=2" vertex="1" parent="HDdBaKYEOaWZxf6mFVSR-246">
          <mxGeometry x="140" width="80" height="30" as="geometry">
            <mxRectangle width="80" height="30" as="alternateBounds" />
          </mxGeometry>
        </mxCell>
        <mxCell id="HDdBaKYEOaWZxf6mFVSR-242" style="shape=tableRow;horizontal=0;startSize=0;swimlaneHead=0;swimlaneBody=0;fillColor=none;collapsible=0;dropTarget=0;points=[[0,0.5],[1,0.5]];portConstraint=eastwest;top=0;left=0;right=0;bottom=0;" vertex="1" parent="HDdBaKYEOaWZxf6mFVSR-225">
          <mxGeometry y="420" width="220" height="30" as="geometry" />
        </mxCell>
        <mxCell id="HDdBaKYEOaWZxf6mFVSR-243" style="shape=partialRectangle;connectable=0;top=0;left=0;bottom=0;right=0;editable=1;overflow=hidden;whiteSpace=wrap;html=1;fontColor=#666666;" vertex="1" parent="HDdBaKYEOaWZxf6mFVSR-242">
          <mxGeometry width="30" height="30" as="geometry">
            <mxRectangle width="30" height="30" as="alternateBounds" />
          </mxGeometry>
        </mxCell>
        <mxCell id="HDdBaKYEOaWZxf6mFVSR-244" style="shape=partialRectangle;connectable=0;top=0;left=0;bottom=0;right=0;align=left;spacingLeft=6;overflow=hidden;whiteSpace=wrap;html=1;fontColor=#666666;" vertex="1" parent="HDdBaKYEOaWZxf6mFVSR-242">
          <mxGeometry x="30" width="110" height="30" as="geometry">
            <mxRectangle width="110" height="30" as="alternateBounds" />
          </mxGeometry>
        </mxCell>
        <mxCell id="HDdBaKYEOaWZxf6mFVSR-245" style="shape=partialRectangle;connectable=0;top=0;left=0;bottom=0;right=0;align=center;spacingLeft=0;overflow=hidden;whiteSpace=wrap;html=1;fontColor=#666666;strokeColor=#FFFCFD;fontStyle=2" vertex="1" parent="HDdBaKYEOaWZxf6mFVSR-242">
          <mxGeometry x="140" width="80" height="30" as="geometry">
            <mxRectangle width="80" height="30" as="alternateBounds" />
          </mxGeometry>
        </mxCell>
        <mxCell id="HDdBaKYEOaWZxf6mFVSR-282" value="dim_titles" style="shape=table;startSize=30;container=1;collapsible=1;childLayout=tableLayout;fixedRows=1;rowLines=0;fontStyle=1;align=center;resizeLast=1;html=1;fillColor=#1ba1e2;strokeColor=#006EAF;fontColor=#ffffff;" vertex="1" parent="1">
          <mxGeometry x="72" y="100" width="220" height="90" as="geometry" />
        </mxCell>
        <mxCell id="HDdBaKYEOaWZxf6mFVSR-283" value="" style="shape=tableRow;horizontal=0;startSize=0;swimlaneHead=0;swimlaneBody=0;fillColor=none;collapsible=0;dropTarget=0;points=[[0,0.5],[1,0.5]];portConstraint=eastwest;top=0;left=0;right=0;bottom=1;" vertex="1" parent="HDdBaKYEOaWZxf6mFVSR-282">
          <mxGeometry y="30" width="220" height="30" as="geometry" />
        </mxCell>
        <mxCell id="HDdBaKYEOaWZxf6mFVSR-284" value="PK" style="shape=partialRectangle;connectable=0;top=0;left=0;bottom=0;right=0;fontStyle=1;overflow=hidden;whiteSpace=wrap;html=1;fontColor=#666666;" vertex="1" parent="HDdBaKYEOaWZxf6mFVSR-283">
          <mxGeometry width="30" height="30" as="geometry">
            <mxRectangle width="30" height="30" as="alternateBounds" />
          </mxGeometry>
        </mxCell>
        <mxCell id="HDdBaKYEOaWZxf6mFVSR-285" value="title_id" style="shape=partialRectangle;connectable=0;top=0;left=0;bottom=0;right=0;align=left;spacingLeft=6;fontStyle=1;overflow=hidden;whiteSpace=wrap;html=1;fontColor=#666666;" vertex="1" parent="HDdBaKYEOaWZxf6mFVSR-283">
          <mxGeometry x="30" width="110" height="30" as="geometry">
            <mxRectangle width="110" height="30" as="alternateBounds" />
          </mxGeometry>
        </mxCell>
        <mxCell id="HDdBaKYEOaWZxf6mFVSR-286" value="int" style="shape=partialRectangle;connectable=0;top=0;left=0;bottom=0;right=0;align=center;spacingLeft=0;fontStyle=2;overflow=hidden;whiteSpace=wrap;html=1;fontColor=#666666;strokeColor=#FFFCFD;" vertex="1" parent="HDdBaKYEOaWZxf6mFVSR-283">
          <mxGeometry x="140" width="80" height="30" as="geometry">
            <mxRectangle width="80" height="30" as="alternateBounds" />
          </mxGeometry>
        </mxCell>
        <mxCell id="HDdBaKYEOaWZxf6mFVSR-287" value="" style="shape=tableRow;horizontal=0;startSize=0;swimlaneHead=0;swimlaneBody=0;fillColor=none;collapsible=0;dropTarget=0;points=[[0,0.5],[1,0.5]];portConstraint=eastwest;top=0;left=0;right=0;bottom=0;" vertex="1" parent="HDdBaKYEOaWZxf6mFVSR-282">
          <mxGeometry y="60" width="220" height="30" as="geometry" />
        </mxCell>
        <mxCell id="HDdBaKYEOaWZxf6mFVSR-288" value="" style="shape=partialRectangle;connectable=0;top=0;left=0;bottom=0;right=0;editable=1;overflow=hidden;whiteSpace=wrap;html=1;fontColor=#666666;" vertex="1" parent="HDdBaKYEOaWZxf6mFVSR-287">
          <mxGeometry width="30" height="30" as="geometry">
            <mxRectangle width="30" height="30" as="alternateBounds" />
          </mxGeometry>
        </mxCell>
        <mxCell id="HDdBaKYEOaWZxf6mFVSR-289" value="title" style="shape=partialRectangle;connectable=0;top=0;left=0;bottom=0;right=0;align=left;spacingLeft=6;overflow=hidden;whiteSpace=wrap;html=1;fontColor=#666666;" vertex="1" parent="HDdBaKYEOaWZxf6mFVSR-287">
          <mxGeometry x="30" width="110" height="30" as="geometry">
            <mxRectangle width="110" height="30" as="alternateBounds" />
          </mxGeometry>
        </mxCell>
        <mxCell id="HDdBaKYEOaWZxf6mFVSR-290" value="text" style="shape=partialRectangle;connectable=0;top=0;left=0;bottom=0;right=0;align=center;spacingLeft=0;overflow=hidden;whiteSpace=wrap;html=1;fontColor=#666666;strokeColor=#FFFCFD;fontStyle=2" vertex="1" parent="HDdBaKYEOaWZxf6mFVSR-287">
          <mxGeometry x="140" width="80" height="30" as="geometry">
            <mxRectangle width="80" height="30" as="alternateBounds" />
          </mxGeometry>
        </mxCell>
        <mxCell id="HDdBaKYEOaWZxf6mFVSR-295" value="dim_salaries" style="shape=table;startSize=30;container=1;collapsible=1;childLayout=tableLayout;fixedRows=1;rowLines=0;fontStyle=1;align=center;resizeLast=1;html=1;fillColor=#1ba1e2;strokeColor=#006EAF;fontColor=#ffffff;" vertex="1" parent="1">
          <mxGeometry x="72" y="720" width="220" height="150" as="geometry" />
        </mxCell>
        <mxCell id="HDdBaKYEOaWZxf6mFVSR-296" value="" style="shape=tableRow;horizontal=0;startSize=0;swimlaneHead=0;swimlaneBody=0;fillColor=none;collapsible=0;dropTarget=0;points=[[0,0.5],[1,0.5]];portConstraint=eastwest;top=0;left=0;right=0;bottom=1;" vertex="1" parent="HDdBaKYEOaWZxf6mFVSR-295">
          <mxGeometry y="30" width="220" height="30" as="geometry" />
        </mxCell>
        <mxCell id="HDdBaKYEOaWZxf6mFVSR-297" value="PK" style="shape=partialRectangle;connectable=0;top=0;left=0;bottom=0;right=0;fontStyle=1;overflow=hidden;whiteSpace=wrap;html=1;fontColor=#666666;" vertex="1" parent="HDdBaKYEOaWZxf6mFVSR-296">
          <mxGeometry width="30" height="30" as="geometry">
            <mxRectangle width="30" height="30" as="alternateBounds" />
          </mxGeometry>
        </mxCell>
        <mxCell id="HDdBaKYEOaWZxf6mFVSR-298" value="salary_id" style="shape=partialRectangle;connectable=0;top=0;left=0;bottom=0;right=0;align=left;spacingLeft=6;fontStyle=1;overflow=hidden;whiteSpace=wrap;html=1;fontColor=#666666;" vertex="1" parent="HDdBaKYEOaWZxf6mFVSR-296">
          <mxGeometry x="30" width="110" height="30" as="geometry">
            <mxRectangle width="110" height="30" as="alternateBounds" />
          </mxGeometry>
        </mxCell>
        <mxCell id="HDdBaKYEOaWZxf6mFVSR-299" value="int" style="shape=partialRectangle;connectable=0;top=0;left=0;bottom=0;right=0;align=center;spacingLeft=0;fontStyle=2;overflow=hidden;whiteSpace=wrap;html=1;fontColor=#666666;strokeColor=#FFFCFD;" vertex="1" parent="HDdBaKYEOaWZxf6mFVSR-296">
          <mxGeometry x="140" width="80" height="30" as="geometry">
            <mxRectangle width="80" height="30" as="alternateBounds" />
          </mxGeometry>
        </mxCell>
        <mxCell id="HDdBaKYEOaWZxf6mFVSR-300" value="" style="shape=tableRow;horizontal=0;startSize=0;swimlaneHead=0;swimlaneBody=0;fillColor=none;collapsible=0;dropTarget=0;points=[[0,0.5],[1,0.5]];portConstraint=eastwest;top=0;left=0;right=0;bottom=0;" vertex="1" parent="HDdBaKYEOaWZxf6mFVSR-295">
          <mxGeometry y="60" width="220" height="30" as="geometry" />
        </mxCell>
        <mxCell id="HDdBaKYEOaWZxf6mFVSR-301" value="" style="shape=partialRectangle;connectable=0;top=0;left=0;bottom=0;right=0;editable=1;overflow=hidden;whiteSpace=wrap;html=1;fontColor=#666666;" vertex="1" parent="HDdBaKYEOaWZxf6mFVSR-300">
          <mxGeometry width="30" height="30" as="geometry">
            <mxRectangle width="30" height="30" as="alternateBounds" />
          </mxGeometry>
        </mxCell>
        <mxCell id="HDdBaKYEOaWZxf6mFVSR-302" value="experience_years" style="shape=partialRectangle;connectable=0;top=0;left=0;bottom=0;right=0;align=left;spacingLeft=6;overflow=hidden;whiteSpace=wrap;html=1;fontColor=#666666;" vertex="1" parent="HDdBaKYEOaWZxf6mFVSR-300">
          <mxGeometry x="30" width="110" height="30" as="geometry">
            <mxRectangle width="110" height="30" as="alternateBounds" />
          </mxGeometry>
        </mxCell>
        <mxCell id="HDdBaKYEOaWZxf6mFVSR-303" value="int" style="shape=partialRectangle;connectable=0;top=0;left=0;bottom=0;right=0;align=center;spacingLeft=0;overflow=hidden;whiteSpace=wrap;html=1;fontColor=#666666;strokeColor=#FFFCFD;fontStyle=2" vertex="1" parent="HDdBaKYEOaWZxf6mFVSR-300">
          <mxGeometry x="140" width="80" height="30" as="geometry">
            <mxRectangle width="80" height="30" as="alternateBounds" />
          </mxGeometry>
        </mxCell>
        <mxCell id="HDdBaKYEOaWZxf6mFVSR-308" style="shape=tableRow;horizontal=0;startSize=0;swimlaneHead=0;swimlaneBody=0;fillColor=none;collapsible=0;dropTarget=0;points=[[0,0.5],[1,0.5]];portConstraint=eastwest;top=0;left=0;right=0;bottom=0;" vertex="1" parent="HDdBaKYEOaWZxf6mFVSR-295">
          <mxGeometry y="90" width="220" height="30" as="geometry" />
        </mxCell>
        <mxCell id="HDdBaKYEOaWZxf6mFVSR-309" value="FK" style="shape=partialRectangle;connectable=0;top=0;left=0;bottom=0;right=0;editable=1;overflow=hidden;whiteSpace=wrap;html=1;fontColor=#666666;" vertex="1" parent="HDdBaKYEOaWZxf6mFVSR-308">
          <mxGeometry width="30" height="30" as="geometry">
            <mxRectangle width="30" height="30" as="alternateBounds" />
          </mxGeometry>
        </mxCell>
        <mxCell id="HDdBaKYEOaWZxf6mFVSR-310" value="title_id" style="shape=partialRectangle;connectable=0;top=0;left=0;bottom=0;right=0;align=left;spacingLeft=6;overflow=hidden;whiteSpace=wrap;html=1;fontColor=#666666;" vertex="1" parent="HDdBaKYEOaWZxf6mFVSR-308">
          <mxGeometry x="30" width="110" height="30" as="geometry">
            <mxRectangle width="110" height="30" as="alternateBounds" />
          </mxGeometry>
        </mxCell>
        <mxCell id="HDdBaKYEOaWZxf6mFVSR-311" value="int" style="shape=partialRectangle;connectable=0;top=0;left=0;bottom=0;right=0;align=center;spacingLeft=0;overflow=hidden;whiteSpace=wrap;html=1;fontColor=#666666;strokeColor=#FFFCFD;fontStyle=2" vertex="1" parent="HDdBaKYEOaWZxf6mFVSR-308">
          <mxGeometry x="140" width="80" height="30" as="geometry">
            <mxRectangle width="80" height="30" as="alternateBounds" />
          </mxGeometry>
        </mxCell>
        <mxCell id="HDdBaKYEOaWZxf6mFVSR-304" style="shape=tableRow;horizontal=0;startSize=0;swimlaneHead=0;swimlaneBody=0;fillColor=none;collapsible=0;dropTarget=0;points=[[0,0.5],[1,0.5]];portConstraint=eastwest;top=0;left=0;right=0;bottom=0;" vertex="1" parent="HDdBaKYEOaWZxf6mFVSR-295">
          <mxGeometry y="120" width="220" height="30" as="geometry" />
        </mxCell>
        <mxCell id="HDdBaKYEOaWZxf6mFVSR-305" style="shape=partialRectangle;connectable=0;top=0;left=0;bottom=0;right=0;editable=1;overflow=hidden;whiteSpace=wrap;html=1;fontColor=#666666;" vertex="1" parent="HDdBaKYEOaWZxf6mFVSR-304">
          <mxGeometry width="30" height="30" as="geometry">
            <mxRectangle width="30" height="30" as="alternateBounds" />
          </mxGeometry>
        </mxCell>
        <mxCell id="HDdBaKYEOaWZxf6mFVSR-306" value="salary_h" style="shape=partialRectangle;connectable=0;top=0;left=0;bottom=0;right=0;align=left;spacingLeft=6;overflow=hidden;whiteSpace=wrap;html=1;fontColor=#666666;" vertex="1" parent="HDdBaKYEOaWZxf6mFVSR-304">
          <mxGeometry x="30" width="110" height="30" as="geometry">
            <mxRectangle width="110" height="30" as="alternateBounds" />
          </mxGeometry>
        </mxCell>
        <mxCell id="HDdBaKYEOaWZxf6mFVSR-307" value="numeric" style="shape=partialRectangle;connectable=0;top=0;left=0;bottom=0;right=0;align=center;spacingLeft=0;overflow=hidden;whiteSpace=wrap;html=1;fontColor=#666666;strokeColor=#FFFCFD;fontStyle=2" vertex="1" parent="HDdBaKYEOaWZxf6mFVSR-304">
          <mxGeometry x="140" width="80" height="30" as="geometry">
            <mxRectangle width="80" height="30" as="alternateBounds" />
          </mxGeometry>
        </mxCell>
        <mxCell id="HDdBaKYEOaWZxf6mFVSR-313" value="" style="edgeStyle=elbowEdgeStyle;elbow=horizontal;endArrow=none;html=1;curved=0;rounded=0;strokeColor=#808080;startArrow=none;startFill=0;endFill=0;exitX=0;exitY=0.5;exitDx=0;exitDy=0;entryX=1;entryY=0.5;entryDx=0;entryDy=0;" edge="1" parent="1" source="HDdBaKYEOaWZxf6mFVSR-10" target="HDdBaKYEOaWZxf6mFVSR-191">
          <mxGeometry width="50" height="50" relative="1" as="geometry">
            <mxPoint x="1012" y="285" as="sourcePoint" />
            <mxPoint x="892" y="405" as="targetPoint" />
            <Array as="points">
              <mxPoint x="622" y="430" />
            </Array>
          </mxGeometry>
        </mxCell>
        <mxCell id="HDdBaKYEOaWZxf6mFVSR-314" value="" style="edgeStyle=elbowEdgeStyle;elbow=horizontal;endArrow=none;html=1;curved=0;rounded=0;strokeColor=#808080;startArrow=none;startFill=0;endFill=0;exitX=0;exitY=0.5;exitDx=0;exitDy=0;entryX=0;entryY=0.5;entryDx=0;entryDy=0;" edge="1" parent="1" source="HDdBaKYEOaWZxf6mFVSR-296" target="HDdBaKYEOaWZxf6mFVSR-254">
          <mxGeometry width="50" height="50" relative="1" as="geometry">
            <mxPoint x="1012" y="315" as="sourcePoint" />
            <mxPoint x="1012" y="505" as="targetPoint" />
            <Array as="points">
              <mxPoint x="40" y="330" />
            </Array>
          </mxGeometry>
        </mxCell>
        <mxCell id="HDdBaKYEOaWZxf6mFVSR-316" value="" style="edgeStyle=elbowEdgeStyle;elbow=horizontal;endArrow=none;html=1;curved=0;rounded=0;strokeColor=#808080;startArrow=none;startFill=0;endFill=0;entryX=0;entryY=0.5;entryDx=0;entryDy=0;exitX=0;exitY=0.5;exitDx=0;exitDy=0;" edge="1" parent="1" source="HDdBaKYEOaWZxf6mFVSR-283" target="HDdBaKYEOaWZxf6mFVSR-321">
          <mxGeometry width="50" height="50" relative="1" as="geometry">
            <mxPoint x="82" y="155" as="sourcePoint" />
            <mxPoint x="82" y="605" as="targetPoint" />
            <Array as="points">
              <mxPoint x="40" y="230" />
              <mxPoint x="332" y="390" />
            </Array>
          </mxGeometry>
        </mxCell>
        <mxCell id="HDdBaKYEOaWZxf6mFVSR-330" value="" style="edgeStyle=elbowEdgeStyle;elbow=horizontal;endArrow=none;html=1;curved=0;rounded=0;strokeColor=#808080;startArrow=none;startFill=0;endFill=0;entryX=1;entryY=0.5;entryDx=0;entryDy=0;exitX=0;exitY=0.5;exitDx=0;exitDy=0;" edge="1" parent="1" source="HDdBaKYEOaWZxf6mFVSR-191" target="HDdBaKYEOaWZxf6mFVSR-317">
          <mxGeometry width="50" height="50" relative="1" as="geometry">
            <mxPoint x="340" y="500" as="sourcePoint" />
            <mxPoint x="302" y="425" as="targetPoint" />
            <Array as="points" />
          </mxGeometry>
        </mxCell>
        <mxCell id="HDdBaKYEOaWZxf6mFVSR-331" value="" style="edgeStyle=elbowEdgeStyle;elbow=horizontal;endArrow=none;html=1;curved=0;rounded=0;strokeColor=#808080;startArrow=none;startFill=0;endFill=0;entryX=1;entryY=0.5;entryDx=0;entryDy=0;exitX=0;exitY=0.5;exitDx=0;exitDy=0;" edge="1" parent="1" source="HDdBaKYEOaWZxf6mFVSR-207" target="HDdBaKYEOaWZxf6mFVSR-270">
          <mxGeometry width="50" height="50" relative="1" as="geometry">
            <mxPoint x="372" y="398" as="sourcePoint" />
            <mxPoint x="302" y="515" as="targetPoint" />
            <Array as="points">
              <mxPoint x="332" y="580" />
            </Array>
          </mxGeometry>
        </mxCell>
        <mxCell id="HDdBaKYEOaWZxf6mFVSR-332" value="" style="edgeStyle=elbowEdgeStyle;elbow=horizontal;endArrow=none;html=1;curved=0;rounded=0;strokeColor=#808080;startArrow=none;startFill=0;endFill=0;" edge="1" parent="1" source="HDdBaKYEOaWZxf6mFVSR-208" target="HDdBaKYEOaWZxf6mFVSR-203">
          <mxGeometry width="50" height="50" relative="1" as="geometry">
            <mxPoint x="571" y="604.9999999999998" as="sourcePoint" />
            <mxPoint x="571" y="485.0000000000002" as="targetPoint" />
            <Array as="points">
              <mxPoint x="601" y="540" />
            </Array>
          </mxGeometry>
        </mxCell>
        <mxCell id="HDdBaKYEOaWZxf6mFVSR-333" value="" style="edgeStyle=elbowEdgeStyle;elbow=horizontal;endArrow=none;html=1;curved=0;rounded=0;strokeColor=#808080;startArrow=none;startFill=0;endFill=0;exitX=0;exitY=0.5;exitDx=0;exitDy=0;entryX=0;entryY=0.5;entryDx=0;entryDy=0;" edge="1" parent="1" source="HDdBaKYEOaWZxf6mFVSR-217" target="HDdBaKYEOaWZxf6mFVSR-212">
          <mxGeometry width="50" height="50" relative="1" as="geometry">
            <mxPoint x="592" y="615" as="sourcePoint" />
            <mxPoint x="592" y="495" as="targetPoint" />
            <Array as="points">
              <mxPoint x="332" y="700" />
            </Array>
          </mxGeometry>
        </mxCell>
        <mxCell id="HDdBaKYEOaWZxf6mFVSR-335" value="" style="edgeStyle=elbowEdgeStyle;elbow=horizontal;endArrow=none;html=1;curved=0;rounded=0;strokeColor=#808080;startArrow=none;startFill=0;endFill=0;entryX=0;entryY=0.5;entryDx=0;entryDy=0;exitX=0;exitY=0.5;exitDx=0;exitDy=0;" edge="1" parent="1" source="HDdBaKYEOaWZxf6mFVSR-283" target="HDdBaKYEOaWZxf6mFVSR-308">
          <mxGeometry width="50" height="50" relative="1" as="geometry">
            <mxPoint x="372" y="255" as="sourcePoint" />
            <mxPoint x="302" y="375" as="targetPoint" />
            <Array as="points">
              <mxPoint x="10" y="440" />
            </Array>
          </mxGeometry>
        </mxCell>
        <mxCell id="HDdBaKYEOaWZxf6mFVSR-336" value="fact_employee_shifts" style="shape=table;startSize=30;container=1;collapsible=1;childLayout=tableLayout;fixedRows=1;rowLines=0;fontStyle=1;align=center;resizeLast=1;html=1;fillColor=#0050ef;strokeColor=#001DBC;fontColor=#ffffff;rounded=0;swimlaneLine=1;" vertex="1" parent="1">
          <mxGeometry x="362" y="110" width="220" height="210" as="geometry" />
        </mxCell>
        <mxCell id="HDdBaKYEOaWZxf6mFVSR-337" value="" style="shape=tableRow;horizontal=0;startSize=0;swimlaneHead=0;swimlaneBody=0;fillColor=none;collapsible=0;dropTarget=0;points=[[0,0.5],[1,0.5]];portConstraint=eastwest;top=0;left=0;right=0;bottom=1;" vertex="1" parent="HDdBaKYEOaWZxf6mFVSR-336">
          <mxGeometry y="30" width="220" height="30" as="geometry" />
        </mxCell>
        <mxCell id="HDdBaKYEOaWZxf6mFVSR-338" value="PK" style="shape=partialRectangle;connectable=0;top=0;left=0;bottom=0;right=0;fontStyle=1;overflow=hidden;whiteSpace=wrap;html=1;fontColor=#666666;" vertex="1" parent="HDdBaKYEOaWZxf6mFVSR-337">
          <mxGeometry width="30" height="30" as="geometry">
            <mxRectangle width="30" height="30" as="alternateBounds" />
          </mxGeometry>
        </mxCell>
        <mxCell id="HDdBaKYEOaWZxf6mFVSR-339" value="log_id" style="shape=partialRectangle;connectable=0;top=0;left=0;bottom=0;right=0;align=left;spacingLeft=6;fontStyle=1;overflow=hidden;whiteSpace=wrap;html=1;fontColor=#666666;" vertex="1" parent="HDdBaKYEOaWZxf6mFVSR-337">
          <mxGeometry x="30" width="110" height="30" as="geometry">
            <mxRectangle width="110" height="30" as="alternateBounds" />
          </mxGeometry>
        </mxCell>
        <mxCell id="HDdBaKYEOaWZxf6mFVSR-340" value="bigint" style="shape=partialRectangle;connectable=0;top=0;left=0;bottom=0;right=0;align=center;spacingLeft=0;fontStyle=2;overflow=hidden;whiteSpace=wrap;html=1;fontColor=#666666;strokeColor=#FFFCFD;" vertex="1" parent="HDdBaKYEOaWZxf6mFVSR-337">
          <mxGeometry x="140" width="80" height="30" as="geometry">
            <mxRectangle width="80" height="30" as="alternateBounds" />
          </mxGeometry>
        </mxCell>
        <mxCell id="HDdBaKYEOaWZxf6mFVSR-341" value="" style="shape=tableRow;horizontal=0;startSize=0;swimlaneHead=0;swimlaneBody=0;fillColor=none;collapsible=0;dropTarget=0;points=[[0,0.5],[1,0.5]];portConstraint=eastwest;top=0;left=0;right=0;bottom=0;" vertex="1" parent="HDdBaKYEOaWZxf6mFVSR-336">
          <mxGeometry y="60" width="220" height="30" as="geometry" />
        </mxCell>
        <mxCell id="HDdBaKYEOaWZxf6mFVSR-342" value="" style="shape=partialRectangle;connectable=0;top=0;left=0;bottom=0;right=0;editable=1;overflow=hidden;whiteSpace=wrap;html=1;fontColor=#666666;" vertex="1" parent="HDdBaKYEOaWZxf6mFVSR-341">
          <mxGeometry width="30" height="30" as="geometry">
            <mxRectangle width="30" height="30" as="alternateBounds" />
          </mxGeometry>
        </mxCell>
        <mxCell id="HDdBaKYEOaWZxf6mFVSR-343" value="date" style="shape=partialRectangle;connectable=0;top=0;left=0;bottom=0;right=0;align=left;spacingLeft=6;overflow=hidden;whiteSpace=wrap;html=1;fontColor=#666666;" vertex="1" parent="HDdBaKYEOaWZxf6mFVSR-341">
          <mxGeometry x="30" width="110" height="30" as="geometry">
            <mxRectangle width="110" height="30" as="alternateBounds" />
          </mxGeometry>
        </mxCell>
        <mxCell id="HDdBaKYEOaWZxf6mFVSR-344" value="date" style="shape=partialRectangle;connectable=0;top=0;left=0;bottom=0;right=0;align=center;spacingLeft=0;overflow=hidden;whiteSpace=wrap;html=1;fontColor=#666666;strokeColor=#FFFCFD;fontStyle=2" vertex="1" parent="HDdBaKYEOaWZxf6mFVSR-341">
          <mxGeometry x="140" width="80" height="30" as="geometry">
            <mxRectangle width="80" height="30" as="alternateBounds" />
          </mxGeometry>
        </mxCell>
        <mxCell id="HDdBaKYEOaWZxf6mFVSR-353" style="shape=tableRow;horizontal=0;startSize=0;swimlaneHead=0;swimlaneBody=0;fillColor=none;collapsible=0;dropTarget=0;points=[[0,0.5],[1,0.5]];portConstraint=eastwest;top=0;left=0;right=0;bottom=0;" vertex="1" parent="HDdBaKYEOaWZxf6mFVSR-336">
          <mxGeometry y="90" width="220" height="30" as="geometry" />
        </mxCell>
        <mxCell id="HDdBaKYEOaWZxf6mFVSR-354" style="shape=partialRectangle;connectable=0;top=0;left=0;bottom=0;right=0;editable=1;overflow=hidden;whiteSpace=wrap;html=1;fontColor=#666666;" vertex="1" parent="HDdBaKYEOaWZxf6mFVSR-353">
          <mxGeometry width="30" height="30" as="geometry">
            <mxRectangle width="30" height="30" as="alternateBounds" />
          </mxGeometry>
        </mxCell>
        <mxCell id="HDdBaKYEOaWZxf6mFVSR-355" value="time" style="shape=partialRectangle;connectable=0;top=0;left=0;bottom=0;right=0;align=left;spacingLeft=6;overflow=hidden;whiteSpace=wrap;html=1;fontColor=#666666;" vertex="1" parent="HDdBaKYEOaWZxf6mFVSR-353">
          <mxGeometry x="30" width="110" height="30" as="geometry">
            <mxRectangle width="110" height="30" as="alternateBounds" />
          </mxGeometry>
        </mxCell>
        <mxCell id="HDdBaKYEOaWZxf6mFVSR-356" value="time" style="shape=partialRectangle;connectable=0;top=0;left=0;bottom=0;right=0;align=center;spacingLeft=0;overflow=hidden;whiteSpace=wrap;html=1;fontColor=#666666;labelBorderColor=none;strokeColor=#FFFCFD;fontStyle=2" vertex="1" parent="HDdBaKYEOaWZxf6mFVSR-353">
          <mxGeometry x="140" width="80" height="30" as="geometry">
            <mxRectangle width="80" height="30" as="alternateBounds" />
          </mxGeometry>
        </mxCell>
        <mxCell id="HDdBaKYEOaWZxf6mFVSR-345" value="" style="shape=tableRow;horizontal=0;startSize=0;swimlaneHead=0;swimlaneBody=0;fillColor=none;collapsible=0;dropTarget=0;points=[[0,0.5],[1,0.5]];portConstraint=eastwest;top=0;left=0;right=0;bottom=0;" vertex="1" parent="HDdBaKYEOaWZxf6mFVSR-336">
          <mxGeometry y="120" width="220" height="30" as="geometry" />
        </mxCell>
        <mxCell id="HDdBaKYEOaWZxf6mFVSR-346" value="" style="shape=partialRectangle;connectable=0;top=0;left=0;bottom=0;right=0;editable=1;overflow=hidden;whiteSpace=wrap;html=1;fontColor=#666666;" vertex="1" parent="HDdBaKYEOaWZxf6mFVSR-345">
          <mxGeometry width="30" height="30" as="geometry">
            <mxRectangle width="30" height="30" as="alternateBounds" />
          </mxGeometry>
        </mxCell>
        <mxCell id="HDdBaKYEOaWZxf6mFVSR-347" value="activity" style="shape=partialRectangle;connectable=0;top=0;left=0;bottom=0;right=0;align=left;spacingLeft=6;overflow=hidden;whiteSpace=wrap;html=1;fontColor=#666666;" vertex="1" parent="HDdBaKYEOaWZxf6mFVSR-345">
          <mxGeometry x="30" width="110" height="30" as="geometry">
            <mxRectangle width="110" height="30" as="alternateBounds" />
          </mxGeometry>
        </mxCell>
        <mxCell id="HDdBaKYEOaWZxf6mFVSR-348" value="varchar(3)" style="shape=partialRectangle;connectable=0;top=0;left=0;bottom=0;right=0;align=center;spacingLeft=0;overflow=hidden;whiteSpace=wrap;html=1;fontColor=#666666;labelBorderColor=none;strokeColor=#FFFCFD;fontStyle=2" vertex="1" parent="HDdBaKYEOaWZxf6mFVSR-345">
          <mxGeometry x="140" width="80" height="30" as="geometry">
            <mxRectangle width="80" height="30" as="alternateBounds" />
          </mxGeometry>
        </mxCell>
        <mxCell id="HDdBaKYEOaWZxf6mFVSR-357" style="shape=tableRow;horizontal=0;startSize=0;swimlaneHead=0;swimlaneBody=0;fillColor=none;collapsible=0;dropTarget=0;points=[[0,0.5],[1,0.5]];portConstraint=eastwest;top=0;left=0;right=0;bottom=0;" vertex="1" parent="HDdBaKYEOaWZxf6mFVSR-336">
          <mxGeometry y="150" width="220" height="30" as="geometry" />
        </mxCell>
        <mxCell id="HDdBaKYEOaWZxf6mFVSR-358" value="FK" style="shape=partialRectangle;connectable=0;top=0;left=0;bottom=0;right=0;editable=1;overflow=hidden;whiteSpace=wrap;html=1;fontColor=#666666;" vertex="1" parent="HDdBaKYEOaWZxf6mFVSR-357">
          <mxGeometry width="30" height="30" as="geometry">
            <mxRectangle width="30" height="30" as="alternateBounds" />
          </mxGeometry>
        </mxCell>
        <mxCell id="HDdBaKYEOaWZxf6mFVSR-359" value="employee_id" style="shape=partialRectangle;connectable=0;top=0;left=0;bottom=0;right=0;align=left;spacingLeft=6;overflow=hidden;whiteSpace=wrap;html=1;fontColor=#666666;" vertex="1" parent="HDdBaKYEOaWZxf6mFVSR-357">
          <mxGeometry x="30" width="110" height="30" as="geometry">
            <mxRectangle width="110" height="30" as="alternateBounds" />
          </mxGeometry>
        </mxCell>
        <mxCell id="HDdBaKYEOaWZxf6mFVSR-360" value="varchar(4)" style="shape=partialRectangle;connectable=0;top=0;left=0;bottom=0;right=0;align=center;spacingLeft=0;overflow=hidden;whiteSpace=wrap;html=1;fontColor=#666666;strokeColor=#FFFCFD;fontStyle=2" vertex="1" parent="HDdBaKYEOaWZxf6mFVSR-357">
          <mxGeometry x="140" width="80" height="30" as="geometry">
            <mxRectangle width="80" height="30" as="alternateBounds" />
          </mxGeometry>
        </mxCell>
        <mxCell id="HDdBaKYEOaWZxf6mFVSR-349" value="" style="shape=tableRow;horizontal=0;startSize=0;swimlaneHead=0;swimlaneBody=0;fillColor=none;collapsible=0;dropTarget=0;points=[[0,0.5],[1,0.5]];portConstraint=eastwest;top=0;left=0;right=0;bottom=0;" vertex="1" parent="HDdBaKYEOaWZxf6mFVSR-336">
          <mxGeometry y="180" width="220" height="30" as="geometry" />
        </mxCell>
        <mxCell id="HDdBaKYEOaWZxf6mFVSR-350" value="FK" style="shape=partialRectangle;connectable=0;top=0;left=0;bottom=0;right=0;editable=1;overflow=hidden;whiteSpace=wrap;html=1;fontColor=#666666;" vertex="1" parent="HDdBaKYEOaWZxf6mFVSR-349">
          <mxGeometry width="30" height="30" as="geometry">
            <mxRectangle width="30" height="30" as="alternateBounds" />
          </mxGeometry>
        </mxCell>
        <mxCell id="HDdBaKYEOaWZxf6mFVSR-351" value="restaurant_id" style="shape=partialRectangle;connectable=0;top=0;left=0;bottom=0;right=0;align=left;spacingLeft=6;overflow=hidden;whiteSpace=wrap;html=1;fontColor=#666666;" vertex="1" parent="HDdBaKYEOaWZxf6mFVSR-349">
          <mxGeometry x="30" width="110" height="30" as="geometry">
            <mxRectangle width="110" height="30" as="alternateBounds" />
          </mxGeometry>
        </mxCell>
        <mxCell id="HDdBaKYEOaWZxf6mFVSR-352" value="varchar(6)" style="shape=partialRectangle;connectable=0;top=0;left=0;bottom=0;right=0;align=center;spacingLeft=0;overflow=hidden;whiteSpace=wrap;html=1;fontColor=#666666;strokeColor=#FFFCFD;fontStyle=2" vertex="1" parent="HDdBaKYEOaWZxf6mFVSR-349">
          <mxGeometry x="140" width="80" height="30" as="geometry">
            <mxRectangle width="80" height="30" as="alternateBounds" />
          </mxGeometry>
        </mxCell>
        <mxCell id="HDdBaKYEOaWZxf6mFVSR-361" value="" style="edgeStyle=elbowEdgeStyle;elbow=horizontal;endArrow=none;html=1;curved=0;rounded=0;strokeColor=#808080;startArrow=none;startFill=0;endFill=0;entryX=1;entryY=0.5;entryDx=0;entryDy=0;exitX=0;exitY=0.5;exitDx=0;exitDy=0;" edge="1" parent="1" source="HDdBaKYEOaWZxf6mFVSR-357" target="HDdBaKYEOaWZxf6mFVSR-226">
          <mxGeometry width="50" height="50" relative="1" as="geometry">
            <mxPoint x="320" y="320" as="sourcePoint" />
            <mxPoint x="302" y="465" as="targetPoint" />
            <Array as="points" />
          </mxGeometry>
        </mxCell>
        <mxCell id="HDdBaKYEOaWZxf6mFVSR-364" value="" style="edgeStyle=elbowEdgeStyle;elbow=horizontal;endArrow=none;html=1;curved=0;rounded=0;strokeColor=#808080;startArrow=none;startFill=0;endFill=0;exitX=0;exitY=0.5;exitDx=0;exitDy=0;entryX=0;entryY=0.5;entryDx=0;entryDy=0;" edge="1" parent="1" source="HDdBaKYEOaWZxf6mFVSR-191" target="HDdBaKYEOaWZxf6mFVSR-349">
          <mxGeometry width="50" height="50" relative="1" as="geometry">
            <mxPoint x="372" y="755" as="sourcePoint" />
            <mxPoint x="372" y="645" as="targetPoint" />
            <Array as="points">
              <mxPoint x="340" y="360" />
            </Array>
          </mxGeometry>
        </mxCell>
      </root>
    </mxGraphModel>
  </diagram>
</mxfile>
